<svg width="1596" height="1079" fill="none" xmlns="http://www.w3.org/2000/svg">
  <g filter="url(#filter0_d)">
    <mask id="a" maskUnits="userSpaceOnUse" x="168" y="46" width="1260" height="958">
      <path transform="rotate(90 1428 46.18)" fill="#C4C4C4" d="M1428 46.181h957.115v1260H1428z"/>
    </mask>
    <g mask="url(#a)">
      <circle cx="798" cy="690.833" r="630" transform="rotate(90 798 690.833)" fill="#13B5EA"/>
    </g>
  </g>
  <path d="M215.151 1001.61H1379.99" stroke="#BFC8D1" stroke-width="10" stroke-linecap="square"/>
  <g filter="url(#filter1_d)">
    <path d="M445.119 291.442c0-5.523 4.477-10 10-10h880.001c5.52 0 10 4.477 10 10v709.998H445.119V291.442z" fill="#fff" stroke="#BFC8D1" stroke-width="6"/>
    <path stroke="#BFC8D1" stroke-width="3" d="M557.296 723.396h724.824"/>
    <path d="M537.225 462.499c.72-.972 1.296-2.178 1.728-3.618.432-1.44.648-3.186.648-5.238 0-1.692-.198-3.33-.594-4.914-.36-1.584-.954-2.988-1.782-4.212a8.857 8.857 0 00-3.24-2.97c-1.332-.756-2.952-1.134-4.86-1.134-1.908 0-3.528.378-4.86 1.134a8.857 8.857 0 00-3.24 2.97c-.828 1.224-1.44 2.628-1.836 4.212a22.105 22.105 0 00-.54 4.914c0 1.62.18 3.204.54 4.752a13.255 13.255 0 001.836 4.104 9.52 9.52 0 003.24 2.97c1.332.72 2.952 1.08 4.86 1.08.9 0 1.584-.036 2.052-.108a4.549 4.549 0 001.35-.432l-3.618-3.294 3.942-4.212 4.374 3.996zm1.242 8.91c-2.556 1.476-5.67 2.214-9.342 2.214-2.952 0-5.616-.504-7.992-1.512-2.34-1.044-4.32-2.466-5.94-4.266-1.62-1.8-2.862-3.906-3.726-6.318-.864-2.448-1.296-5.076-1.296-7.884 0-2.88.432-5.544 1.296-7.992.864-2.484 2.106-4.644 3.726-6.48 1.62-1.836 3.6-3.276 5.94-4.32 2.376-1.044 5.04-1.566 7.992-1.566 2.988 0 5.652.522 7.992 1.566s4.32 2.484 5.94 4.32c1.62 1.836 2.862 3.996 3.726 6.48.864 2.448 1.296 5.112 1.296 7.992 0 2.808-.432 5.418-1.296 7.83-.864 2.412-2.106 4.536-3.726 6.372l4.806 4.374-3.942 4.104-5.454-4.914zm40.762 1.35v-27.918h-7.668v14.634c0 2.844-.468 4.896-1.404 6.156-.936 1.224-2.448 1.836-4.536 1.836-1.836 0-3.114-.558-3.834-1.674-.72-1.152-1.08-2.88-1.08-5.184v-15.768h-7.668v17.172c0 1.728.144 3.312.432 4.752.324 1.404.864 2.61 1.62 3.618.756.972 1.782 1.728 3.078 2.268 1.332.54 3.024.81 5.076.81 1.62 0 3.204-.36 4.752-1.08 1.548-.72 2.808-1.89 3.78-3.51h.162v3.888h7.29zm12.599-13.932c0-1.116.108-2.214.324-3.294.216-1.08.576-2.034 1.08-2.862a6.219 6.219 0 012.106-1.998c.864-.54 1.944-.81 3.24-.81 1.296 0 2.376.27 3.24.81.9.504 1.602 1.17 2.106 1.998.54.828.918 1.782 1.134 2.862.216 1.08.324 2.178.324 3.294s-.108 2.214-.324 3.294a8.663 8.663 0 01-1.134 2.862c-.504.828-1.206 1.494-2.106 1.998-.864.504-1.944.756-3.24.756-1.296 0-2.376-.252-3.24-.756a6.219 6.219 0 01-2.106-1.998 9.427 9.427 0 01-1.08-2.862 16.755 16.755 0 01-.324-3.294zm-7.668 0c0 2.232.342 4.248 1.026 6.048.684 1.8 1.656 3.348 2.916 4.644 1.26 1.26 2.772 2.232 4.536 2.916 1.764.684 3.744 1.026 5.94 1.026s4.176-.342 5.94-1.026c1.8-.684 3.33-1.656 4.59-2.916 1.26-1.296 2.232-2.844 2.916-4.644.684-1.8 1.026-3.816 1.026-6.048s-.342-4.248-1.026-6.048c-.684-1.836-1.656-3.384-2.916-4.644-1.26-1.296-2.79-2.286-4.59-2.97-1.764-.72-3.744-1.08-5.94-1.08s-4.176.36-5.94 1.08c-1.764.684-3.276 1.674-4.536 2.97-1.26 1.26-2.232 2.808-2.916 4.644-.684 1.8-1.026 3.816-1.026 6.048zm43.571-13.986v-8.37h-7.668v8.37h-4.644v5.13h4.644v16.47c0 1.404.234 2.538.702 3.402.468.864 1.098 1.53 1.89 1.998.828.468 1.764.774 2.808.918 1.08.18 2.214.27 3.402.27.756 0 1.53-.018 2.322-.054a18.246 18.246 0 002.16-.216v-5.94c-.36.072-.738.126-1.134.162-.396.036-.81.054-1.242.054-1.296 0-2.16-.216-2.592-.648-.432-.432-.648-1.296-.648-2.592v-13.824h5.616v-5.13h-5.616zm28.031 10.962h-12.474c.036-.54.144-1.152.324-1.836a6.326 6.326 0 011.026-1.944c.504-.612 1.152-1.116 1.944-1.512.828-.432 1.854-.648 3.078-.648 1.872 0 3.258.504 4.158 1.512.936 1.008 1.584 2.484 1.944 4.428zm-12.474 4.86h20.142c.144-2.16-.036-4.23-.54-6.21-.504-1.98-1.332-3.744-2.484-5.292-1.116-1.548-2.556-2.772-4.32-3.672-1.764-.936-3.834-1.404-6.21-1.404-2.124 0-4.068.378-5.832 1.134a13.602 13.602 0 00-4.482 3.132c-1.26 1.296-2.232 2.844-2.916 4.644-.684 1.8-1.026 3.744-1.026 5.832 0 2.16.324 4.14.972 5.94.684 1.8 1.638 3.348 2.862 4.644 1.224 1.296 2.718 2.304 4.482 3.024 1.764.684 3.744 1.026 5.94 1.026 3.168 0 5.868-.72 8.1-2.16 2.232-1.44 3.888-3.834 4.968-7.182h-6.75c-.252.864-.936 1.692-2.052 2.484-1.116.756-2.448 1.134-3.996 1.134-2.16 0-3.816-.558-4.968-1.674-1.152-1.116-1.782-2.916-1.89-5.4z" fill="#0078C8"/>
    <path d="M510.576 551.868v22.491h2.993v-9.608h7.308c.735 0 1.323.116 1.764.347.441.21.798.504 1.071.882.273.357.472.787.598 1.291.126.483.231.998.315 1.544.105.546.168 1.102.189 1.669.021.567.042 1.103.063 1.607.021.483.063.924.126 1.323.084.399.231.714.441.945h3.339a4.105 4.105 0 01-.724-1.292 12.299 12.299 0 01-.347-1.575 14.492 14.492 0 01-.157-1.669 42.09 42.09 0 00-.095-1.67 12.304 12.304 0 00-.283-1.575 4.063 4.063 0 00-.536-1.354 3.158 3.158 0 00-.976-1.071c-.399-.294-.924-.504-1.575-.63v-.063c1.365-.378 2.352-1.082 2.961-2.111.63-1.029.945-2.226.945-3.591 0-1.827-.609-3.265-1.827-4.315-1.197-1.05-2.867-1.575-5.009-1.575h-10.584zm9.23 10.363h-6.237v-7.843h7.434c1.407 0 2.425.357 3.055 1.071.63.714.945 1.638.945 2.772 0 .819-.147 1.491-.441 2.016a3.35 3.35 0 01-1.134 1.228c-.462.294-1.008.494-1.638.599-.63.105-1.291.157-1.984.157zm14.711-7.087v-3.276h-2.678v3.276h2.678zm-2.678 2.929v16.286h2.678v-16.286h-2.678zm8.761 8.285c0-.798.084-1.575.252-2.331a6.167 6.167 0 01.819-2.016 4.265 4.265 0 011.512-1.418c.63-.357 1.397-.535 2.3-.535.924 0 1.711.178 2.362.535a4.301 4.301 0 011.575 1.355c.42.567.725 1.228.914 1.984.189.735.283 1.502.283 2.3a8.94 8.94 0 01-.283 2.236 5.803 5.803 0 01-.851 1.985 4.674 4.674 0 01-1.543 1.386c-.63.357-1.397.535-2.3.535-.861 0-1.617-.168-2.268-.504a4.666 4.666 0 01-1.575-1.354 6.497 6.497 0 01-.913-1.922 8.942 8.942 0 01-.284-2.236zm12.6 8.001v-22.491h-2.677v8.379h-.063a4.02 4.02 0 00-1.103-1.197 5.183 5.183 0 00-1.354-.788 6.364 6.364 0 00-1.449-.441 7.936 7.936 0 00-1.355-.126c-1.239 0-2.331.231-3.276.693a6.642 6.642 0 00-2.331 1.827c-.609.756-1.071 1.649-1.386 2.678a11.872 11.872 0 00-.441 3.276c0 1.155.158 2.247.473 3.276.315 1.029.777 1.932 1.386 2.709a6.975 6.975 0 002.331 1.858c.945.462 2.047.693 3.307.693 1.134 0 2.174-.199 3.119-.598.945-.399 1.638-1.05 2.079-1.953h.063v2.205h2.677zm18.151-1.386v-14.9h-2.52v2.331h-.032c-.483-.903-1.155-1.575-2.016-2.016a5.9 5.9 0 00-2.835-.693c-1.407 0-2.593.273-3.559.819-.966.525-1.743 1.208-2.331 2.048a7.94 7.94 0 00-1.26 2.772 12.182 12.182 0 00-.378 2.961c0 1.113.147 2.173.441 3.181a8.002 8.002 0 001.386 2.615 6.746 6.746 0 002.268 1.764c.903.441 1.963.661 3.181.661 1.05 0 2.037-.231 2.961-.693.945-.483 1.649-1.228 2.111-2.236h.063v1.071c0 .903-.095 1.732-.284 2.488-.168.756-.451 1.397-.85 1.922a3.998 3.998 0 01-1.512 1.26c-.609.315-1.355.472-2.237.472-.441 0-.903-.052-1.386-.157a4.877 4.877 0 01-1.354-.441 3.593 3.593 0 01-1.04-.819c-.273-.336-.42-.746-.441-1.229h-2.677c.042.882.273 1.628.693 2.237.42.609.945 1.102 1.575 1.48a7.313 7.313 0 002.142.819c.798.168 1.575.252 2.331.252 2.604 0 4.515-.661 5.733-1.984s1.827-3.318 1.827-5.985zm-7.497-.788c-.882 0-1.617-.178-2.205-.535a4.45 4.45 0 01-1.418-1.449 6.459 6.459 0 01-.756-2.016c-.147-.735-.22-1.47-.22-2.205 0-.777.084-1.523.252-2.237a5.974 5.974 0 01.85-1.89 4.281 4.281 0 011.512-1.291c.609-.336 1.344-.504 2.205-.504.84 0 1.554.168 2.142.504a3.985 3.985 0 011.418 1.354c.378.546.651 1.166.819 1.859.168.693.252 1.396.252 2.11a9.32 9.32 0 01-.284 2.268 6.542 6.542 0 01-.819 2.048 4.545 4.545 0 01-1.512 1.449c-.609.357-1.354.535-2.236.535zm22.827-7.528h-9.356a5.42 5.42 0 01.41-1.764 4.702 4.702 0 01.945-1.481c.399-.42.871-.745 1.417-.976a4.603 4.603 0 011.89-.378c.672 0 1.281.126 1.827.378.567.231 1.05.556 1.449.976.42.399.746.882.977 1.449.252.567.399 1.166.441 1.796zm2.583 4.536h-2.646c-.231 1.071-.714 1.869-1.449 2.394-.714.525-1.638.787-2.772.787-.882 0-1.649-.147-2.3-.441-.651-.294-1.186-.682-1.606-1.165a4.773 4.773 0 01-.914-1.701 6.606 6.606 0 01-.252-2.048h12.191a12.492 12.492 0 00-.284-3.118 8.608 8.608 0 00-1.197-3.024 6.79 6.79 0 00-2.299-2.268c-.945-.609-2.142-.914-3.591-.914-1.113 0-2.142.21-3.087.63a7.434 7.434 0 00-2.426 1.764c-.672.756-1.197 1.649-1.575 2.678-.378 1.029-.567 2.163-.567 3.402.042 1.239.221 2.383.536 3.433.336 1.05.829 1.953 1.48 2.709a6.708 6.708 0 002.394 1.764c.966.42 2.1.63 3.402.63 1.848 0 3.381-.462 4.599-1.386 1.218-.924 2.006-2.299 2.363-4.126zm19.138 5.166l5.197-16.286h-2.772l-3.654 13.325h-.063l-3.402-13.325h-2.929l-3.276 13.325h-.063l-3.686-13.325h-2.961l5.229 16.286h2.898l3.276-12.947h.063l3.308 12.947h2.835zm22.152-.063c-.462.273-1.102.409-1.921.409-.693 0-1.25-.189-1.67-.567-.399-.399-.598-1.039-.598-1.921-.735.882-1.596 1.522-2.583 1.921-.966.378-2.016.567-3.15.567a8.675 8.675 0 01-2.111-.252 4.878 4.878 0 01-1.701-.787 3.957 3.957 0 01-1.165-1.386c-.273-.588-.41-1.292-.41-2.111 0-.924.158-1.68.473-2.268a4.038 4.038 0 011.228-1.417 5.725 5.725 0 011.764-.851 22.285 22.285 0 012.048-.472 20.904 20.904 0 012.079-.315c.672-.084 1.26-.189 1.764-.315.504-.147.903-.347 1.197-.599.294-.273.441-.661.441-1.165 0-.588-.116-1.061-.347-1.418a2.125 2.125 0 00-.85-.819 3.314 3.314 0 00-1.166-.378 8.482 8.482 0 00-1.26-.094c-1.134 0-2.079.22-2.835.661-.756.42-1.165 1.229-1.228 2.426h-2.678c.042-1.008.252-1.859.63-2.552a4.637 4.637 0 011.512-1.669 6.178 6.178 0 012.142-.945 11.607 11.607 0 012.615-.284c.735 0 1.459.053 2.173.158a5.54 5.54 0 011.985.661c.588.315 1.06.767 1.417 1.355s.536 1.354.536 2.299v8.379c0 .63.031 1.092.094 1.386.084.294.336.441.756.441.231 0 .504-.052.819-.157v2.079zm-4.347-8.348c-.336.252-.777.441-1.323.567-.546.105-1.123.2-1.732.284-.588.063-1.187.147-1.796.252a6.23 6.23 0 00-1.638.441c-.483.21-.882.514-1.197.913-.294.378-.441.903-.441 1.575 0 .441.084.819.252 1.134.189.294.42.536.693.725.294.189.63.325 1.008.409.378.084.777.126 1.197.126.882 0 1.638-.115 2.268-.346.63-.252 1.145-.557 1.544-.914.399-.378.693-.777.882-1.197.189-.441.283-.85.283-1.228v-2.741zm13.216 10.584c-.315.798-.63 1.47-.945 2.016-.294.546-.63.987-1.008 1.323a3.007 3.007 0 01-1.228.756c-.441.168-.956.252-1.544.252-.315 0-.63-.021-.945-.063a4.456 4.456 0 01-.913-.22v-2.457c.231.105.493.189.787.252.315.084.578.126.788.126.546 0 .997-.137 1.354-.41.378-.252.662-.619.851-1.102l1.102-2.741-6.457-16.191h3.024l4.756 13.325h.063l4.568-13.325h2.835l-7.088 18.459zm31.538-18.081h2.835c-.042-1.239-.283-2.299-.724-3.181a5.98 5.98 0 00-1.764-2.237c-.735-.588-1.596-1.018-2.583-1.291-.987-.273-2.058-.41-3.213-.41-1.029 0-2.037.137-3.024.41a8.032 8.032 0 00-2.615 1.197 5.928 5.928 0 00-1.827 2.047c-.462.819-.693 1.796-.693 2.93 0 1.029.2 1.89.599 2.583a5.4 5.4 0 001.638 1.669c.693.42 1.47.767 2.331 1.04.861.252 1.732.483 2.614.693.903.189 1.785.378 2.646.567.861.189 1.628.441 2.3.756.693.294 1.239.682 1.638 1.165.42.483.63 1.113.63 1.89 0 .819-.168 1.491-.504 2.016a3.803 3.803 0 01-1.323 1.26 6.258 6.258 0 01-1.859.63c-.672.126-1.344.189-2.016.189-.84 0-1.659-.105-2.457-.315a6.284 6.284 0 01-2.11-.976 5.314 5.314 0 01-1.449-1.67c-.357-.693-.536-1.512-.536-2.457h-2.835c0 1.365.242 2.552.725 3.56a7.208 7.208 0 002.016 2.457c.861.63 1.848 1.102 2.961 1.417a13.36 13.36 0 003.591.473c1.029 0 2.058-.126 3.087-.378a8.917 8.917 0 002.835-1.134 6.668 6.668 0 002.047-2.079c.546-.861.819-1.89.819-3.087 0-1.113-.21-2.037-.63-2.772a5.257 5.257 0 00-1.638-1.827 8.102 8.102 0 00-2.299-1.134 27.364 27.364 0 00-2.646-.756 65.216 65.216 0 00-2.615-.567 15.35 15.35 0 01-2.331-.693c-.672-.273-1.218-.62-1.638-1.04-.399-.441-.598-1.008-.598-1.701 0-.735.136-1.344.409-1.827a3.451 3.451 0 011.134-1.197 5.116 5.116 0 011.638-.63 9.154 9.154 0 011.859-.189c1.554 0 2.824.368 3.811 1.103 1.008.714 1.596 1.879 1.764 3.496zm18.015 4.851h2.772c-.105-.966-.357-1.795-.756-2.488a5.454 5.454 0 00-1.544-1.764c-.609-.462-1.323-.798-2.142-1.008a9.254 9.254 0 00-2.583-.347c-1.281 0-2.404.231-3.37.693a6.644 6.644 0 00-2.426 1.859c-.63.777-1.102 1.701-1.417 2.772-.315 1.05-.473 2.184-.473 3.402s.158 2.341.473 3.37c.336 1.008.819 1.88 1.449 2.615a6.555 6.555 0 002.394 1.701c.966.399 2.068.598 3.307.598 2.079 0 3.717-.546 4.914-1.638 1.218-1.092 1.974-2.646 2.268-4.662h-2.74c-.168 1.26-.63 2.237-1.386 2.93-.735.693-1.764 1.039-3.087 1.039-.84 0-1.565-.168-2.174-.504a4.288 4.288 0 01-1.48-1.323 6.374 6.374 0 01-.851-1.921 9.595 9.595 0 01-.252-2.205c0-.819.084-1.607.252-2.363.168-.777.441-1.459.819-2.047a4.463 4.463 0 011.575-1.418c.651-.357 1.46-.535 2.426-.535 1.134 0 2.037.283 2.709.85.672.567 1.113 1.365 1.323 2.394zm5.845-11.434v22.491h2.677v-9.198c0-.735.095-1.407.284-2.016.21-.63.514-1.176.913-1.638a4.016 4.016 0 011.481-1.071c.609-.252 1.323-.378 2.142-.378 1.029 0 1.837.294 2.425.882.588.588.882 1.386.882 2.394v11.025h2.678v-10.71c0-.882-.095-1.68-.284-2.394-.168-.735-.472-1.365-.913-1.89-.441-.525-1.019-.935-1.733-1.229-.714-.294-1.606-.441-2.677-.441-.483 0-.987.053-1.512.158a6.495 6.495 0 00-1.481.504c-.462.21-.882.493-1.26.85a3.413 3.413 0 00-.882 1.26h-.063v-8.599h-2.677zm19.438 14.364c0-.987.126-1.859.378-2.615.273-.777.641-1.428 1.103-1.953a4.667 4.667 0 011.606-1.197 4.94 4.94 0 011.985-.409 4.72 4.72 0 011.953.409 4.59 4.59 0 011.638 1.197c.462.525.819 1.176 1.071 1.953.273.756.409 1.628.409 2.615 0 .987-.136 1.869-.409 2.646-.252.756-.609 1.396-1.071 1.921a4.772 4.772 0 01-1.638 1.166 4.72 4.72 0 01-1.953.409 4.94 4.94 0 01-1.985-.409 4.855 4.855 0 01-1.606-1.166c-.462-.525-.83-1.165-1.103-1.921-.252-.777-.378-1.659-.378-2.646zm-2.835 0c0 1.197.168 2.31.504 3.339a7.785 7.785 0 001.512 2.709c.672.756 1.502 1.354 2.489 1.795.987.42 2.121.63 3.402.63 1.302 0 2.436-.21 3.402-.63.987-.441 1.816-1.039 2.488-1.795a7.785 7.785 0 001.512-2.709c.336-1.029.504-2.142.504-3.339s-.168-2.31-.504-3.339c-.336-1.05-.84-1.953-1.512-2.709a7.03 7.03 0 00-2.488-1.827c-.966-.441-2.1-.662-3.402-.662-1.281 0-2.415.221-3.402.662a7.034 7.034 0 00-2.489 1.827c-.672.756-1.176 1.659-1.512 2.709-.336 1.029-.504 2.142-.504 3.339zm20.906 0c0-.987.126-1.859.378-2.615.273-.777.64-1.428 1.102-1.953a4.67 4.67 0 011.607-1.197 4.936 4.936 0 011.984-.409 4.72 4.72 0 011.953.409 4.59 4.59 0 011.638 1.197c.462.525.819 1.176 1.071 1.953.273.756.41 1.628.41 2.615 0 .987-.137 1.869-.41 2.646-.252.756-.609 1.396-1.071 1.921a4.772 4.772 0 01-1.638 1.166 4.72 4.72 0 01-1.953.409 4.936 4.936 0 01-1.984-.409 4.859 4.859 0 01-1.607-1.166c-.462-.525-.829-1.165-1.102-1.921-.252-.777-.378-1.659-.378-2.646zm-2.835 0c0 1.197.168 2.31.504 3.339a7.785 7.785 0 001.512 2.709c.672.756 1.501 1.354 2.488 1.795.987.42 2.121.63 3.402.63 1.302 0 2.436-.21 3.402-.63.987-.441 1.817-1.039 2.489-1.795a7.785 7.785 0 001.512-2.709c.336-1.029.504-2.142.504-3.339s-.168-2.31-.504-3.339c-.336-1.05-.84-1.953-1.512-2.709a7.034 7.034 0 00-2.489-1.827c-.966-.441-2.1-.662-3.402-.662-1.281 0-2.415.221-3.402.662a7.03 7.03 0 00-2.488 1.827c-.672.756-1.176 1.659-1.512 2.709-.336 1.029-.504 2.142-.504 3.339zm19.11-14.364v22.491h2.677v-22.491h-2.677zm-237.903 38v22.491h2.993v-22.491h-2.993zm7.567 6.205v16.286h2.678v-9.198c0-.735.094-1.407.283-2.016.21-.63.515-1.176.914-1.638a4.012 4.012 0 011.48-1.071c.609-.252 1.323-.378 2.142-.378 1.029 0 1.838.294 2.426.882.588.588.882 1.386.882 2.394v11.025h2.677v-10.71c0-.882-.094-1.68-.283-2.394-.168-.735-.473-1.365-.914-1.89-.441-.525-1.018-.935-1.732-1.229-.714-.294-1.607-.441-2.678-.441-2.415 0-4.179.987-5.292 2.961h-.063v-2.583h-2.52zm24.826 16.286l5.953-16.286h-2.803l-4.442 13.577h-.063l-4.567-13.577h-2.993l6.048 16.286h2.867zm10.346-8.127c0-.987.126-1.859.378-2.615.273-.777.64-1.428 1.102-1.953a4.67 4.67 0 011.607-1.197 4.936 4.936 0 011.984-.409 4.72 4.72 0 011.953.409 4.59 4.59 0 011.638 1.197c.462.525.819 1.176 1.071 1.953.273.756.41 1.628.41 2.615 0 .987-.137 1.869-.41 2.646-.252.756-.609 1.396-1.071 1.921a4.772 4.772 0 01-1.638 1.166 4.72 4.72 0 01-1.953.409 4.936 4.936 0 01-1.984-.409 4.859 4.859 0 01-1.607-1.166c-.462-.525-.829-1.165-1.102-1.921-.252-.777-.378-1.659-.378-2.646zm-2.835 0c0 1.197.168 2.31.504 3.339a7.785 7.785 0 001.512 2.709c.672.756 1.501 1.354 2.488 1.795.987.42 2.121.63 3.402.63 1.302 0 2.436-.21 3.402-.63.987-.441 1.817-1.039 2.489-1.795a7.785 7.785 0 001.512-2.709c.336-1.029.504-2.142.504-3.339s-.168-2.31-.504-3.339c-.336-1.05-.84-1.953-1.512-2.709a7.034 7.034 0 00-2.489-1.827c-.966-.441-2.1-.662-3.402-.662-1.281 0-2.415.221-3.402.662a7.03 7.03 0 00-2.488 1.827c-.672.756-1.176 1.659-1.512 2.709-.336 1.029-.504 2.142-.504 3.339zm21.787-11.088v-3.276h-2.677v3.276h2.677zm-2.677 2.929v16.286h2.677v-16.286h-2.677zm17.864 5.229h2.772c-.105-.966-.357-1.795-.756-2.488a5.451 5.451 0 00-1.543-1.764c-.609-.462-1.323-.798-2.142-1.008a9.254 9.254 0 00-2.583-.347c-1.281 0-2.405.231-3.371.693a6.641 6.641 0 00-2.425 1.859c-.63.777-1.103 1.701-1.418 2.772-.315 1.05-.472 2.184-.472 3.402s.157 2.341.472 3.37c.336 1.008.819 1.88 1.449 2.615a6.555 6.555 0 002.394 1.701c.966.399 2.069.598 3.308.598 2.079 0 3.717-.546 4.914-1.638 1.218-1.092 1.974-2.646 2.268-4.662h-2.741c-.168 1.26-.63 2.237-1.386 2.93-.735.693-1.764 1.039-3.087 1.039-.84 0-1.564-.168-2.173-.504a4.291 4.291 0 01-1.481-1.323 6.372 6.372 0 01-.85-1.921 9.595 9.595 0 01-.252-2.205c0-.819.084-1.607.252-2.363.168-.777.441-1.459.819-2.047a4.463 4.463 0 011.575-1.418c.651-.357 1.459-.535 2.425-.535 1.134 0 2.037.283 2.709.85.672.567 1.113 1.365 1.323 2.394zm17.154 1.355h-9.356a5.42 5.42 0 01.41-1.764 4.702 4.702 0 01.945-1.481c.399-.42.871-.745 1.417-.976a4.603 4.603 0 011.89-.378c.672 0 1.281.126 1.827.378.567.231 1.05.556 1.449.976.42.399.746.882.977 1.449.252.567.399 1.166.441 1.796zm2.583 4.536h-2.646c-.231 1.071-.714 1.869-1.449 2.394-.714.525-1.638.787-2.772.787-.882 0-1.649-.147-2.3-.441-.651-.294-1.186-.682-1.606-1.165a4.773 4.773 0 01-.914-1.701 6.606 6.606 0 01-.252-2.048h12.191a12.492 12.492 0 00-.284-3.118 8.608 8.608 0 00-1.197-3.024 6.79 6.79 0 00-2.299-2.268c-.945-.609-2.142-.914-3.591-.914-1.113 0-2.142.21-3.087.63a7.434 7.434 0 00-2.426 1.764c-.672.756-1.197 1.649-1.575 2.678-.378 1.029-.567 2.163-.567 3.402.042 1.239.221 2.383.536 3.433.336 1.05.829 1.953 1.48 2.709a6.708 6.708 0 002.394 1.764c.966.42 2.1.63 3.402.63 1.848 0 3.381-.462 4.599-1.386 1.218-.924 2.006-2.299 2.363-4.126zm11.759-11.12v16.286h2.678v-9.198c0-.735.094-1.407.283-2.016.21-.63.515-1.176.914-1.638a4.012 4.012 0 011.48-1.071c.609-.252 1.323-.378 2.142-.378 1.029 0 1.838.294 2.426.882.588.588.882 1.386.882 2.394v11.025h2.677v-10.71c0-.882-.094-1.68-.283-2.394-.168-.735-.473-1.365-.914-1.89-.441-.525-1.018-.935-1.732-1.229-.714-.294-1.607-.441-2.678-.441-2.415 0-4.179.987-5.292 2.961h-.063v-2.583h-2.52zm30.968 16.286v-16.286h-2.677v9.198a6.44 6.44 0 01-.315 2.048 4.439 4.439 0 01-.882 1.606 3.962 3.962 0 01-1.512 1.071c-.588.252-1.292.378-2.111.378-1.029 0-1.837-.294-2.425-.882-.588-.588-.882-1.386-.882-2.394v-11.025h-2.678v10.71c0 .882.084 1.691.252 2.426.189.714.504 1.333.945 1.858.441.525 1.019.935 1.733 1.229.714.273 1.606.409 2.677.409 1.197 0 2.237-.231 3.119-.693.882-.483 1.606-1.228 2.173-2.236h.063v2.583h2.52zm4.004-16.286v16.286h2.678v-10.143c0-.315.073-.704.22-1.166.168-.483.42-.945.756-1.386a4.813 4.813 0 011.355-1.134c.567-.315 1.239-.472 2.016-.472.609 0 1.102.094 1.48.283.399.168.714.42.945.756.231.315.389.693.473 1.134.105.441.157.924.157 1.449v10.679h2.678v-10.143c0-1.26.378-2.268 1.134-3.024.756-.756 1.795-1.134 3.118-1.134.651 0 1.176.094 1.575.283.42.189.746.452.977.788.231.315.388.693.472 1.134.084.441.126.913.126 1.417v10.679h2.678V600.42c0-.84-.137-1.554-.41-2.142a3.57 3.57 0 00-1.102-1.48c-.462-.378-1.029-.651-1.701-.819-.651-.189-1.386-.284-2.205-.284a6.18 6.18 0 00-2.961.725 5.718 5.718 0 00-2.142 2.047c-.336-1.008-.914-1.722-1.733-2.142-.819-.42-1.732-.63-2.74-.63-2.289 0-4.043.924-5.261 2.772h-.063v-2.394h-2.52zm26.932-6.205v22.491h2.678v-2.174h.063a4.66 4.66 0 001.071 1.229 6.38 6.38 0 001.386.756c.483.189.966.325 1.449.409.504.084.955.126 1.354.126 1.239 0 2.321-.22 3.245-.661.945-.441 1.722-1.04 2.331-1.796a7.533 7.533 0 001.386-2.709c.315-1.029.472-2.121.472-3.276 0-1.155-.157-2.247-.472-3.276a7.942 7.942 0 00-1.418-2.709 6.44 6.44 0 00-2.331-1.89c-.924-.462-2.016-.693-3.276-.693-1.134 0-2.173.21-3.118.63-.945.399-1.638 1.05-2.079 1.953h-.063v-8.41h-2.678zm12.6 14.206c0 .798-.084 1.575-.252 2.331a6.167 6.167 0 01-.819 2.016 4.265 4.265 0 01-1.512 1.418c-.609.357-1.375.535-2.299.535-.924 0-1.712-.168-2.363-.504a4.898 4.898 0 01-1.606-1.386 5.921 5.921 0 01-.882-1.953 9.575 9.575 0 01-.284-2.331 10 10 0 01.252-2.236 5.921 5.921 0 01.882-1.953 4.55 4.55 0 011.544-1.418c.63-.357 1.396-.535 2.299-.535.861 0 1.607.168 2.237.504a4.299 4.299 0 011.575 1.354c.42.567.724 1.218.913 1.953.21.714.315 1.449.315 2.205zm17.269-1.417h-9.356a5.42 5.42 0 01.41-1.764 4.702 4.702 0 01.945-1.481c.399-.42.871-.745 1.417-.976a4.603 4.603 0 011.89-.378c.672 0 1.281.126 1.827.378.567.231 1.05.556 1.449.976.42.399.746.882.977 1.449.252.567.399 1.166.441 1.796zm2.583 4.536h-2.646c-.231 1.071-.714 1.869-1.449 2.394-.714.525-1.638.787-2.772.787-.882 0-1.649-.147-2.3-.441-.651-.294-1.186-.682-1.606-1.165a4.773 4.773 0 01-.914-1.701 6.606 6.606 0 01-.252-2.048h12.191a12.492 12.492 0 00-.284-3.118 8.608 8.608 0 00-1.197-3.024 6.79 6.79 0 00-2.299-2.268c-.945-.609-2.142-.914-3.591-.914-1.113 0-2.142.21-3.087.63a7.434 7.434 0 00-2.426 1.764c-.672.756-1.197 1.649-1.575 2.678-.378 1.029-.567 2.163-.567 3.402.042 1.239.221 2.383.536 3.433.336 1.05.829 1.953 1.48 2.709a6.708 6.708 0 002.394 1.764c.966.42 2.1.63 3.402.63 1.848 0 3.381-.462 4.599-1.386 1.218-.924 2.006-2.299 2.363-4.126zm2.915-11.12v16.286h2.678v-7.245c0-1.05.105-1.974.315-2.772.21-.819.546-1.512 1.008-2.079.462-.567 1.071-.998 1.827-1.292.756-.294 1.669-.441 2.74-.441v-2.835c-1.449-.042-2.646.252-3.591.882-.945.63-1.743 1.607-2.394 2.93h-.063v-3.434h-2.52zm33.334-3.37v-2.3h-14.458v2.52h11.718a35.27 35.27 0 00-3.308 4.064 33.116 33.116 0 00-2.677 4.693 32.263 32.263 0 00-1.922 5.166 28.25 28.25 0 00-.913 5.513h2.992c.105-1.743.399-3.539.882-5.387a37.075 37.075 0 011.859-5.386 36.549 36.549 0 012.646-4.914c.987-1.533 2.047-2.856 3.181-3.969zm16.258.063v-2.363h-11.025l-2.079 11.592 2.299.126a6.444 6.444 0 011.796-1.512c.693-.399 1.48-.598 2.362-.598.756 0 1.439.126 2.048.378.63.252 1.165.609 1.606 1.071.441.441.777.976 1.008 1.606.252.609.378 1.281.378 2.016 0 .882-.126 1.659-.378 2.331a4.657 4.657 0 01-1.039 1.638c-.42.441-.924.777-1.512 1.008a5.13 5.13 0 01-1.796.315 5.843 5.843 0 01-1.858-.283 4.974 4.974 0 01-1.449-.851 4.872 4.872 0 01-.977-1.291 4.65 4.65 0 01-.409-1.607h-2.678c.021 1.008.221 1.911.599 2.709s.892 1.47 1.543 2.016a7.453 7.453 0 002.237 1.229 9.011 9.011 0 002.74.409c1.302 0 2.436-.199 3.402-.598.987-.42 1.806-.977 2.457-1.67a6.716 6.716 0 001.449-2.362 7.89 7.89 0 00.504-2.772c0-1.281-.189-2.394-.567-3.339-.378-.966-.892-1.764-1.543-2.394a6.122 6.122 0 00-2.3-1.449 8.27 8.27 0 00-2.803-.473 6.91 6.91 0 00-2.3.41c-.756.252-1.375.651-1.858 1.197l-.063-.063 1.197-6.426h9.009zm17.486 0v-2.363H772.4l-2.079 11.592 2.299.126a6.444 6.444 0 011.796-1.512c.693-.399 1.48-.598 2.362-.598.756 0 1.439.126 2.048.378.63.252 1.165.609 1.606 1.071.441.441.777.976 1.008 1.606.252.609.378 1.281.378 2.016 0 .882-.126 1.659-.378 2.331a4.657 4.657 0 01-1.039 1.638c-.42.441-.924.777-1.512 1.008a5.13 5.13 0 01-1.796.315 5.843 5.843 0 01-1.858-.283 4.974 4.974 0 01-1.449-.851 4.872 4.872 0 01-.977-1.291 4.65 4.65 0 01-.409-1.607h-2.678c.021 1.008.221 1.911.599 2.709s.892 1.47 1.543 2.016a7.453 7.453 0 002.237 1.229 9.011 9.011 0 002.74.409c1.302 0 2.436-.199 3.402-.598.987-.42 1.806-.977 2.457-1.67a6.716 6.716 0 001.449-2.362 7.89 7.89 0 00.504-2.772c0-1.281-.189-2.394-.567-3.339-.378-.966-.892-1.764-1.543-2.394a6.122 6.122 0 00-2.3-1.449 8.27 8.27 0 00-2.803-.473 6.91 6.91 0 00-2.3.41c-.756.252-1.375.651-1.858 1.197l-.063-.063 1.197-6.426h9.009zm-261.414 51.986v-16.884h-2.993v16.443c0 1.239-.262 2.226-.787 2.961-.504.735-1.439 1.102-2.804 1.102-.735 0-1.344-.105-1.827-.315a2.85 2.85 0 01-1.102-.945 4.066 4.066 0 01-.536-1.417 9.531 9.531 0 01-.157-1.796v-.945h-2.993v1.386c0 2.142.567 3.77 1.701 4.883 1.134 1.092 2.751 1.638 4.851 1.638 1.26 0 2.31-.168 3.15-.504.861-.357 1.544-.819 2.048-1.386a5.02 5.02 0 001.102-1.985c.231-.735.347-1.48.347-2.236zm18.868 5.544c-.462.273-1.102.409-1.921.409-.693 0-1.25-.189-1.67-.567-.399-.399-.598-1.039-.598-1.921-.735.882-1.596 1.522-2.583 1.921-.966.378-2.016.567-3.15.567a8.675 8.675 0 01-2.111-.252 4.878 4.878 0 01-1.701-.787 3.957 3.957 0 01-1.165-1.386c-.273-.588-.41-1.292-.41-2.111 0-.924.158-1.68.473-2.268a4.038 4.038 0 011.228-1.417 5.725 5.725 0 011.764-.851 22.285 22.285 0 012.048-.472 20.904 20.904 0 012.079-.315c.672-.084 1.26-.189 1.764-.315.504-.147.903-.347 1.197-.599.294-.273.441-.661.441-1.165 0-.588-.116-1.061-.347-1.418a2.125 2.125 0 00-.85-.819 3.314 3.314 0 00-1.166-.378 8.482 8.482 0 00-1.26-.094c-1.134 0-2.079.22-2.835.661-.756.42-1.165 1.229-1.228 2.426H526.2c.042-1.008.252-1.859.63-2.552a4.637 4.637 0 011.512-1.669 6.178 6.178 0 012.142-.945 11.607 11.607 0 012.615-.284c.735 0 1.459.053 2.173.158a5.54 5.54 0 011.985.661c.588.315 1.06.767 1.417 1.355s.536 1.354.536 2.299v8.379c0 .63.031 1.092.094 1.386.084.294.336.441.756.441.231 0 .504-.052.819-.157v2.079zm-4.347-8.348c-.336.252-.777.441-1.323.567-.546.105-1.123.2-1.732.284-.588.063-1.187.147-1.796.252a6.23 6.23 0 00-1.638.441c-.483.21-.882.514-1.197.913-.294.378-.441.903-.441 1.575 0 .441.084.819.252 1.134.189.294.42.536.693.725.294.189.63.325 1.008.409.378.084.777.126 1.197.126.882 0 1.638-.115 2.268-.346.63-.252 1.145-.557 1.544-.914.399-.378.693-.777.882-1.197.189-.441.283-.85.283-1.228v-2.741zm6.822-7.875v16.286h2.677v-9.198c0-.735.095-1.407.284-2.016.21-.63.514-1.176.913-1.638a4.016 4.016 0 011.481-1.071c.609-.252 1.323-.378 2.142-.378 1.029 0 1.837.294 2.425.882.588.588.882 1.386.882 2.394v11.025h2.678v-10.71c0-.882-.095-1.68-.284-2.394-.168-.735-.472-1.365-.913-1.89-.441-.525-1.019-.935-1.733-1.229-.714-.294-1.606-.441-2.677-.441-2.415 0-4.179.987-5.292 2.961h-.063v-2.583h-2.52zm30.967 16.286v-16.286h-2.677v9.198a6.44 6.44 0 01-.315 2.048 4.439 4.439 0 01-.882 1.606 3.962 3.962 0 01-1.512 1.071c-.588.252-1.292.378-2.111.378-1.029 0-1.837-.294-2.425-.882-.588-.588-.882-1.386-.882-2.394v-11.025h-2.678v10.71c0 .882.084 1.691.252 2.426.189.714.504 1.333.945 1.858.441.525 1.019.935 1.733 1.229.714.273 1.606.409 2.677.409 1.197 0 2.237-.231 3.119-.693.882-.483 1.606-1.228 2.173-2.236h.063v2.583h2.52zm18.431-.063c-.462.273-1.102.409-1.921.409-.693 0-1.25-.189-1.67-.567-.399-.399-.598-1.039-.598-1.921-.735.882-1.596 1.522-2.583 1.921-.966.378-2.016.567-3.15.567a8.675 8.675 0 01-2.111-.252 4.878 4.878 0 01-1.701-.787 3.957 3.957 0 01-1.165-1.386c-.273-.588-.41-1.292-.41-2.111 0-.924.158-1.68.473-2.268a4.038 4.038 0 011.228-1.417 5.725 5.725 0 011.764-.851 22.285 22.285 0 012.048-.472 20.904 20.904 0 012.079-.315c.672-.084 1.26-.189 1.764-.315.504-.147.903-.347 1.197-.599.294-.273.441-.661.441-1.165 0-.588-.116-1.061-.347-1.418a2.125 2.125 0 00-.85-.819 3.314 3.314 0 00-1.166-.378 8.482 8.482 0 00-1.26-.094c-1.134 0-2.079.22-2.835.661-.756.42-1.165 1.229-1.228 2.426h-2.678c.042-1.008.252-1.859.63-2.552a4.637 4.637 0 011.512-1.669 6.178 6.178 0 012.142-.945 11.607 11.607 0 012.615-.284c.735 0 1.459.053 2.173.158a5.54 5.54 0 011.985.661c.588.315 1.06.767 1.417 1.355s.536 1.354.536 2.299v8.379c0 .63.031 1.092.094 1.386.084.294.336.441.756.441.231 0 .504-.052.819-.157v2.079zm-4.347-8.348c-.336.252-.777.441-1.323.567-.546.105-1.123.2-1.732.284-.588.063-1.187.147-1.796.252a6.23 6.23 0 00-1.638.441c-.483.21-.882.514-1.197.913-.294.378-.441.903-.441 1.575 0 .441.084.819.252 1.134.189.294.42.536.693.725.294.189.63.325 1.008.409.378.084.777.126 1.197.126.882 0 1.638-.115 2.268-.346.63-.252 1.145-.557 1.544-.914.399-.378.693-.777.882-1.197.189-.441.283-.85.283-1.228v-2.741zm6.727-7.875v16.286h2.678v-7.245c0-1.05.105-1.974.315-2.772.21-.819.546-1.512 1.008-2.079.462-.567 1.071-.998 1.827-1.292.756-.294 1.669-.441 2.74-.441v-2.835c-1.449-.042-2.646.252-3.591.882-.945.63-1.743 1.607-2.394 2.93h-.063v-3.434h-2.52zm16.962 18.459c-.315.798-.63 1.47-.945 2.016-.294.546-.63.987-1.008 1.323a3.01 3.01 0 01-1.229.756c-.441.168-.955.252-1.543.252-.315 0-.63-.021-.945-.063a4.465 4.465 0 01-.914-.22v-2.457c.231.105.494.189.788.252.315.084.577.126.787.126.546 0 .998-.137 1.355-.41.378-.252.661-.619.85-1.102l1.103-2.741-6.458-16.191h3.024l4.757 13.325h.063l4.567-13.325h2.835l-7.087 18.459zm17.457-16.6h2.678a7.863 7.863 0 01.189-1.985c.168-.672.43-1.27.787-1.795a4.093 4.093 0 011.355-1.26c.567-.336 1.239-.504 2.016-.504.588 0 1.144.094 1.669.283.525.189.977.462 1.355.819.399.357.714.788.945 1.292.231.483.346 1.029.346 1.638 0 .777-.126 1.459-.378 2.047a5.015 5.015 0 01-1.071 1.638c-.462.504-1.05 1.008-1.764 1.512a78.442 78.442 0 01-2.488 1.607c-.777.462-1.523.955-2.237 1.48a10.545 10.545 0 00-1.921 1.827c-.567.693-1.04 1.512-1.418 2.457-.357.924-.588 2.048-.693 3.371h14.585v-2.363H632.04a4.217 4.217 0 01.787-1.827c.42-.546.914-1.05 1.481-1.512a16.124 16.124 0 011.921-1.291l2.079-1.26a34.17 34.17 0 002.016-1.386 10.554 10.554 0 001.733-1.607 7.384 7.384 0 001.197-2.047c.315-.756.472-1.628.472-2.615 0-1.05-.189-1.974-.567-2.772a5.415 5.415 0 00-1.48-1.984 6.259 6.259 0 00-2.237-1.229 8.144 8.144 0 00-2.709-.441c-1.176 0-2.226.2-3.15.599a6.49 6.49 0 00-2.331 1.669c-.609.693-1.06 1.523-1.354 2.489-.294.966-.41 2.016-.347 3.15zm20.258 3.433v-1.795c.021-.672.074-1.334.158-1.985.105-.672.241-1.323.409-1.953.189-.63.452-1.176.788-1.638a4.144 4.144 0 011.323-1.165c.525-.294 1.165-.441 1.921-.441s1.397.147 1.922.441c.525.294.955.682 1.291 1.165.357.462.62 1.008.788 1.638.189.63.325 1.281.409 1.953.105.651.158 1.313.158 1.985.021.651.031 1.249.031 1.795 0 .84-.031 1.785-.094 2.835a11.117 11.117 0 01-.504 2.93 5.403 5.403 0 01-1.355 2.299c-.63.63-1.512.945-2.646.945s-2.016-.315-2.646-.945a5.682 5.682 0 01-1.386-2.299 13.147 13.147 0 01-.504-2.93 71.598 71.598 0 01-.063-2.835zm-2.835.032c0 .819.021 1.669.063 2.551.042.882.147 1.743.315 2.583.168.84.41 1.638.725 2.394a6.456 6.456 0 001.291 1.953c.546.567 1.229 1.019 2.048 1.355.84.315 1.837.472 2.992.472 1.176 0 2.174-.157 2.993-.472.819-.336 1.501-.788 2.047-1.355a6.459 6.459 0 001.292-1.953c.315-.756.556-1.554.724-2.394.168-.84.273-1.701.315-2.583.042-.882.063-1.732.063-2.551 0-.819-.021-1.67-.063-2.552a17.364 17.364 0 00-.315-2.583 12.665 12.665 0 00-.724-2.394 6.352 6.352 0 00-1.292-1.984c-.546-.567-1.239-1.019-2.079-1.355-.819-.336-1.806-.504-2.961-.504-1.155 0-2.152.168-2.992.504-.819.336-1.502.788-2.048 1.355a6.35 6.35 0 00-1.291 1.984 12.667 12.667 0 00-.725 2.394c-.168.84-.273 1.701-.315 2.583a53.713 53.713 0 00-.063 2.552zm17.549-3.465h2.678a7.863 7.863 0 01.189-1.985c.168-.672.43-1.27.787-1.795a4.093 4.093 0 011.355-1.26c.567-.336 1.239-.504 2.016-.504.588 0 1.144.094 1.669.283.525.189.977.462 1.355.819.399.357.714.788.945 1.292.231.483.346 1.029.346 1.638 0 .777-.126 1.459-.378 2.047a5.015 5.015 0 01-1.071 1.638c-.462.504-1.05 1.008-1.764 1.512a78.442 78.442 0 01-2.488 1.607c-.777.462-1.523.955-2.237 1.48a10.545 10.545 0 00-1.921 1.827c-.567.693-1.04 1.512-1.418 2.457-.357.924-.588 2.048-.693 3.371h14.585v-2.363h-11.466a4.217 4.217 0 01.787-1.827c.42-.546.914-1.05 1.481-1.512a16.124 16.124 0 011.921-1.291l2.079-1.26a34.17 34.17 0 002.016-1.386 10.554 10.554 0 001.733-1.607 7.384 7.384 0 001.197-2.047c.315-.756.472-1.628.472-2.615 0-1.05-.189-1.974-.567-2.772a5.415 5.415 0 00-1.48-1.984 6.259 6.259 0 00-2.237-1.229 8.144 8.144 0 00-2.709-.441c-1.176 0-2.226.2-3.15.599a6.49 6.49 0 00-2.331 1.669c-.609.693-1.06 1.523-1.354 2.489-.294.966-.41 2.016-.347 3.15zm20.258 3.433v-1.795c.021-.672.073-1.334.157-1.985.105-.672.242-1.323.41-1.953.189-.63.451-1.176.787-1.638a4.144 4.144 0 011.323-1.165c.525-.294 1.166-.441 1.922-.441s1.396.147 1.921.441a3.83 3.83 0 011.292 1.165 4.57 4.57 0 01.787 1.638c.189.63.326 1.281.41 1.953.105.651.157 1.313.157 1.985.021.651.032 1.249.032 1.795 0 .84-.032 1.785-.095 2.835a11.117 11.117 0 01-.504 2.93 5.401 5.401 0 01-1.354 2.299c-.63.63-1.512.945-2.646.945s-2.016-.315-2.646-.945a5.682 5.682 0 01-1.386-2.299 13.147 13.147 0 01-.504-2.93 71.598 71.598 0 01-.063-2.835zm-2.835.032c0 .819.021 1.669.063 2.551.042.882.147 1.743.315 2.583.168.84.409 1.638.724 2.394a6.459 6.459 0 001.292 1.953c.546.567 1.228 1.019 2.047 1.355.84.315 1.838.472 2.993.472 1.176 0 2.173-.157 2.992-.472.819-.336 1.502-.788 2.048-1.355a6.456 6.456 0 001.291-1.953c.315-.756.557-1.554.725-2.394.168-.84.273-1.701.315-2.583.042-.882.063-1.732.063-2.551 0-.819-.021-1.67-.063-2.552a17.364 17.364 0 00-.315-2.583c-.168-.84-.41-1.638-.725-2.394a6.35 6.35 0 00-1.291-1.984c-.546-.567-1.239-1.019-2.079-1.355-.819-.336-1.806-.504-2.961-.504-1.155 0-2.153.168-2.993.504-.819.336-1.501.788-2.047 1.355a6.352 6.352 0 00-1.292 1.984 12.665 12.665 0 00-.724 2.394c-.168.84-.273 1.701-.315 2.583a53.713 53.713 0 00-.063 2.552zM560.874 847.321h6.965c6.58 0 11.55-3.71 11.55-11.76 0-8.085-4.97-11.62-11.55-11.62h-6.965v23.38zm2.94-20.86h4.025c4.27 0 8.47 2.065 8.47 9.1 0 7-4.2 9.24-8.47 9.24h-4.025v-18.34zm26.928 19.005c-3.15 0-4.9-2.45-5.04-6.37h11.48c.175-.455.35-1.33.35-2.345 0-4.165-2.415-7.35-6.79-7.35-4.725 0-7.805 3.535-7.805 9.24 0 5.915 3.01 9.1 7.805 9.1 3.115 0 5.81-1.365 6.615-4.76l-2.485-.7c-.525 2.205-2.03 3.185-4.13 3.185zm-4.97-8.47c.385-3.395 2.1-5.39 4.9-5.39 2.625 0 4.025 2.03 4.025 4.48 0 .245 0 .595-.035.91h-8.89zm14.841 5.915c.525 3.08 3.29 4.83 6.93 4.83 3.71 0 6.51-1.855 6.51-5.18 0-7.105-9.975-3.535-9.975-8.12 0-1.785 1.295-2.835 3.43-2.835 2.31 0 3.465 1.19 3.64 3.045l2.695-.385c-.35-3.185-2.52-4.865-6.335-4.865-3.5 0-6.125 1.96-6.125 5.25 0 6.895 9.975 3.5 9.975 8.12 0 1.855-1.54 2.765-3.815 2.765-2.24 0-4.025-1.365-4.305-3.36l-2.625.735zm16.913-4.34c0 5.775 3.08 9.17 7.805 9.17 3.57 0 5.915-2.03 6.405-5.425l-2.625-.49c-.175 2.03-1.505 3.64-3.78 3.64-3.255 0-4.9-2.8-4.9-6.895s1.645-6.895 4.9-6.895c2.275 0 3.605 1.645 3.78 3.57l2.625-.49c-.35-3.185-2.835-5.355-6.405-5.355-4.725 0-7.805 3.43-7.805 9.17zm28.017-9.065c-3.255-.595-5.88 1.68-6.58 4.795l-.385-4.48h-2.275v17.5h2.87v-8.855c0-3.815 2.03-6.055 4.795-6.055.49 0 1.085.035 1.4.105l.175-3.01zm7.367-5.005c0-1.19-.875-2.1-2.065-2.1s-2.065.91-2.065 2.1.875 2.1 2.065 2.1 2.065-.91 2.065-2.1zm-3.5 5.32v17.5h2.87v-17.5h-2.87zm11.876 7.525c0-3.955 2.345-5.635 4.55-5.635 3.15 0 5.04 2.205 5.04 6.86s-2.135 6.895-5.04 6.895c-2.205 0-4.55-1.47-4.55-5.005v-3.115zm-.735-7.525h-2.135v24.43h2.87v-9.275c.63 1.47 2.38 2.765 4.97 2.765 4.69 0 7.525-3.955 7.525-9.17s-2.38-9.17-7.35-9.17c-2.765 0-4.935 1.855-5.53 3.78l-.35-3.36zm26.761 14.595c-.98.63-1.715.91-2.87.91-1.505 0-2.555-.77-2.555-2.695v-10.605h5.25v-2.205h-5.25v-4.165l-2.87.455v3.71h-2.52v2.205h2.52v10.885c0 3.255 1.96 4.83 5.215 4.83 1.225 0 2.59-.42 3.605-1.05l-.525-2.275zm8.236-19.915c0-1.19-.875-2.1-2.065-2.1s-2.065.91-2.065 2.1.875 2.1 2.065 2.1 2.065-.91 2.065-2.1zm-3.5 5.32v17.5h2.87v-17.5h-2.87zm23.426 8.75c0-5.88-3.185-9.17-7.84-9.17-4.655 0-7.84 3.29-7.84 9.17s3.185 9.17 7.84 9.17c4.655 0 7.84-3.29 7.84-9.17zm-2.905 0c0 4.515-1.715 6.93-4.935 6.93-3.22 0-4.935-2.415-4.935-6.93s1.715-6.93 4.935-6.93c3.22 0 4.935 2.415 4.935 6.93zm9.914-8.75h-2.135v17.5h2.87v-10.15c0-3.815 2.1-5.25 4.585-5.25 2.345 0 3.43 1.47 3.43 3.71v11.69h2.87v-12.285c0-3.535-2.205-5.635-5.39-5.635-2.765 0-4.9 1.4-5.88 3.815l-.35-3.395zm174.7-6.347l-1.575 1.827 2.488 1.985a8.031 8.031 0 01-3.118.63c-1.365 0-2.541-.263-3.528-.788a7.243 7.243 0 01-2.426-2.142 9.13 9.13 0 01-1.386-2.961 13.141 13.141 0 01-.441-3.37c0-1.134.147-2.247.441-3.339a9.095 9.095 0 011.386-2.993 6.936 6.936 0 012.426-2.11c.987-.546 2.163-.819 3.528-.819 1.365 0 2.541.273 3.528.819a6.932 6.932 0 012.425 2.11 9.095 9.095 0 011.386 2.993c.294 1.092.441 2.205.441 3.339 0 1.386-.21 2.719-.63 4-.42 1.26-1.071 2.331-1.953 3.213l-2.992-2.394zm6.615 8.348l1.512-1.89-2.961-2.331a10.914 10.914 0 002.551-4.032c.567-1.554.851-3.192.851-4.914 0-1.533-.231-3.003-.693-4.41-.441-1.428-1.113-2.688-2.016-3.78-.903-1.092-2.027-1.964-3.371-2.615-1.344-.651-2.908-.976-4.693-.976-1.785 0-3.35.325-4.694.976-1.344.651-2.467 1.523-3.37 2.615-.903 1.092-1.586 2.352-2.048 3.78a14.658 14.658 0 00-.661 4.41c0 1.533.22 3.013.661 4.441a11.406 11.406 0 002.048 3.749c.903 1.092 2.026 1.963 3.37 2.614 1.344.63 2.909.945 4.694.945 2.079 0 3.874-.441 5.386-1.323l3.434 2.741zm18.623-1.922v-16.285h-2.678v9.198c0 .735-.105 1.417-.315 2.047a4.443 4.443 0 01-.882 1.607 3.962 3.962 0 01-1.512 1.071c-.588.252-1.291.378-2.11.378-1.029 0-1.838-.294-2.426-.882-.588-.588-.882-1.386-.882-2.394v-11.025h-2.677v10.71c0 .882.084 1.69.252 2.425.189.714.504 1.334.945 1.859.441.525 1.018.934 1.732 1.228.714.273 1.607.41 2.678.41 1.197 0 2.236-.231 3.118-.693.882-.483 1.607-1.229 2.174-2.237h.063v2.583h2.52zm18.431-.063c-.462.273-1.103.41-1.922.41-.693 0-1.249-.189-1.669-.567-.399-.399-.599-1.04-.599-1.922-.735.882-1.596 1.523-2.583 1.922-.966.378-2.016.567-3.15.567a8.667 8.667 0 01-2.11-.252 4.88 4.88 0 01-1.701-.788 3.96 3.96 0 01-1.166-1.386c-.273-.588-.409-1.291-.409-2.11 0-.924.157-1.68.472-2.268a4.044 4.044 0 011.229-1.418 5.723 5.723 0 011.764-.85 22.268 22.268 0 012.047-.473 20.904 20.904 0 012.079-.315c.672-.084 1.26-.189 1.764-.315.504-.147.903-.346 1.197-.598.294-.273.441-.662.441-1.166 0-.588-.115-1.06-.346-1.417a2.127 2.127 0 00-.851-.819 3.308 3.308 0 00-1.165-.378 8.483 8.483 0 00-1.26-.095c-1.134 0-2.079.221-2.835.662-.756.42-1.166 1.228-1.229 2.425h-2.677c.042-1.008.252-1.858.63-2.551a4.64 4.64 0 011.512-1.67 6.178 6.178 0 012.142-.945c.819-.189 1.69-.283 2.614-.283.735 0 1.46.052 2.174.157a5.536 5.536 0 011.984.662 3.656 3.656 0 011.418 1.354c.357.588.535 1.355.535 2.3v8.379c0 .63.032 1.092.095 1.386.084.294.336.441.756.441.231 0 .504-.053.819-.158v2.079zm-4.347-8.347c-.336.252-.777.441-1.323.567a33.27 33.27 0 01-1.733.283c-.588.063-1.186.147-1.795.252a6.23 6.23 0 00-1.638.441c-.483.21-.882.515-1.197.914-.294.378-.441.903-.441 1.575 0 .441.084.819.252 1.134.189.294.42.535.693.724.294.189.63.326 1.008.41.378.084.777.126 1.197.126.882 0 1.638-.116 2.268-.347.63-.252 1.144-.556 1.543-.913.399-.378.693-.777.882-1.197.189-.441.284-.851.284-1.229v-2.74zm6.821-7.875V829.9h2.678v-9.198c0-.735.094-1.407.283-2.016.21-.63.515-1.176.914-1.638a4.012 4.012 0 011.48-1.071c.609-.252 1.323-.378 2.142-.378 1.029 0 1.838.294 2.426.882.588.588.882 1.386.882 2.394V829.9h2.677v-10.71c0-.882-.094-1.68-.283-2.394-.168-.735-.473-1.365-.914-1.89-.441-.525-1.018-.934-1.732-1.228-.714-.294-1.607-.441-2.678-.441-2.415 0-4.179.987-5.292 2.961h-.063v-2.583h-2.52zm21.203 0v-4.883h-2.677v4.883h-2.772v2.362h2.772v10.364c0 .756.073 1.365.22 1.827.147.462.368.819.662 1.071.315.252.714.43 1.197.535.504.084 1.102.126 1.795.126h2.048v-2.362h-1.229c-.42 0-.766-.011-1.039-.032-.252-.042-.452-.115-.599-.22a.857.857 0 01-.315-.441 3.623 3.623 0 01-.063-.756v-10.112h3.245v-2.362h-3.245zm9.037-2.93v-3.276h-2.678v3.276h2.678zm-2.678 2.93V829.9h2.678v-16.285h-2.678zm10.525 0v-4.883h-2.677v4.883h-2.772v2.362h2.772v10.364c0 .756.073 1.365.22 1.827.147.462.368.819.662 1.071.315.252.714.43 1.197.535.504.084 1.102.126 1.795.126h2.048v-2.362h-1.229c-.42 0-.766-.011-1.039-.032-.252-.042-.452-.115-.599-.22a.857.857 0 01-.315-.441 3.623 3.623 0 01-.063-.756v-10.112h3.245v-2.362h-3.245zm12.596 18.459c-.315.798-.63 1.47-.945 2.016-.294.546-.63.987-1.008 1.323a3.007 3.007 0 01-1.228.756c-.441.168-.956.252-1.544.252-.315 0-.63-.021-.945-.063a4.457 4.457 0 01-.913-.221v-2.457c.231.105.493.189.787.252.315.084.578.126.788.126.546 0 .997-.136 1.354-.409.378-.252.662-.62.851-1.103l1.102-2.74-6.457-16.191h3.024l4.756 13.324h.063l4.568-13.324h2.838l-7.091 18.459z" fill="#9FACBA"/>
    <path d="M921.094 875.419h2.677a7.855 7.855 0 01.189-1.984 5.564 5.564 0 01.788-1.796 4.09 4.09 0 011.354-1.26c.567-.336 1.239-.504 2.016-.504.588 0 1.145.095 1.67.284.525.189.976.462 1.354.819.399.357.714.787.945 1.291.231.483.347 1.029.347 1.638 0 .777-.126 1.46-.378 2.048a5.015 5.015 0 01-1.071 1.638c-.462.504-1.05 1.008-1.764 1.512a78.706 78.706 0 01-2.489 1.606c-.777.462-1.522.956-2.236 1.481a10.55 10.55 0 00-1.922 1.827c-.567.693-1.039 1.512-1.417 2.457-.357.924-.588 2.047-.693 3.37h14.584v-2.362h-11.466a4.218 4.218 0 01.788-1.827c.42-.546.913-1.05 1.48-1.512a16.142 16.142 0 011.922-1.292l2.079-1.26a34.17 34.17 0 002.016-1.386 10.542 10.542 0 001.732-1.606 7.39 7.39 0 001.197-2.048c.315-.756.473-1.627.473-2.614 0-1.05-.189-1.974-.567-2.772a5.421 5.421 0 00-1.481-1.985 6.252 6.252 0 00-2.236-1.228 8.144 8.144 0 00-2.709-.441c-1.176 0-2.226.199-3.15.598a6.493 6.493 0 00-2.331 1.67c-.609.693-1.061 1.522-1.355 2.488-.294.966-.409 2.016-.346 3.15zm20.258 3.434v-1.796c.021-.672.073-1.333.157-1.984.105-.672.242-1.323.41-1.953.189-.63.451-1.176.787-1.638a4.147 4.147 0 011.323-1.166c.525-.294 1.166-.441 1.922-.441s1.396.147 1.921.441c.525.294.956.683 1.292 1.166a4.57 4.57 0 01.787 1.638c.189.63.326 1.281.41 1.953.105.651.157 1.312.157 1.984.021.651.032 1.25.032 1.796 0 .84-.032 1.785-.095 2.835a11.11 11.11 0 01-.504 2.929 5.405 5.405 0 01-1.354 2.3c-.63.63-1.512.945-2.646.945s-2.016-.315-2.646-.945a5.686 5.686 0 01-1.386-2.3c-.273-.924-.441-1.9-.504-2.929a71.598 71.598 0 01-.063-2.835zm-2.835.031c0 .819.021 1.67.063 2.552.042.882.147 1.743.315 2.583.168.84.409 1.638.724 2.394a6.459 6.459 0 001.292 1.953c.546.567 1.228 1.018 2.047 1.354.84.315 1.838.473 2.993.473 1.176 0 2.173-.158 2.992-.473.819-.336 1.502-.787 2.048-1.354a6.456 6.456 0 001.291-1.953c.315-.756.557-1.554.725-2.394.168-.84.273-1.701.315-2.583.042-.882.063-1.733.063-2.552s-.021-1.669-.063-2.551a17.364 17.364 0 00-.315-2.583c-.168-.84-.41-1.638-.725-2.394a6.354 6.354 0 00-1.291-1.985c-.546-.567-1.239-1.018-2.079-1.354-.819-.336-1.806-.504-2.961-.504-1.155 0-2.153.168-2.993.504-.819.336-1.501.787-2.047 1.354a6.357 6.357 0 00-1.292 1.985 12.665 12.665 0 00-.724 2.394c-.168.84-.273 1.701-.315 2.583a53.672 53.672 0 00-.063 2.551zm-4.004 57.522v-2.362h-11.025l-2.079 11.592 2.299.126a6.444 6.444 0 011.796-1.512c.693-.399 1.48-.599 2.362-.599.756 0 1.439.126 2.048.378.63.252 1.165.609 1.606 1.071a4.36 4.36 0 011.008 1.607c.252.609.378 1.281.378 2.016 0 .882-.126 1.659-.378 2.331a4.657 4.657 0 01-1.039 1.638c-.42.441-.924.777-1.512 1.008a5.13 5.13 0 01-1.796.315 5.843 5.843 0 01-1.858-.284 4.971 4.971 0 01-1.449-.85 4.877 4.877 0 01-.977-1.292 4.644 4.644 0 01-.409-1.606h-2.678c.021 1.008.221 1.911.599 2.709s.892 1.47 1.543 2.016a7.45 7.45 0 002.237 1.228c.861.273 1.774.41 2.74.41 1.302 0 2.436-.2 3.402-.599.987-.42 1.806-.976 2.457-1.669a6.72 6.72 0 001.449-2.363 7.89 7.89 0 00.504-2.772c0-1.281-.189-2.394-.567-3.339-.378-.966-.892-1.764-1.543-2.394a6.122 6.122 0 00-2.3-1.449 8.27 8.27 0 00-2.803-.472c-.756 0-1.523.136-2.3.409-.756.252-1.375.651-1.858 1.197l-.063-.063 1.197-6.426h9.009zm6.839 8.6v-1.796c.021-.672.073-1.333.157-1.984.105-.672.242-1.323.41-1.953.189-.63.451-1.176.787-1.638a4.147 4.147 0 011.323-1.166c.525-.294 1.166-.441 1.922-.441s1.396.147 1.921.441c.525.294.956.683 1.292 1.166a4.57 4.57 0 01.787 1.638c.189.63.326 1.281.41 1.953.105.651.157 1.312.157 1.984.021.651.032 1.25.032 1.796 0 .84-.032 1.785-.095 2.835a11.11 11.11 0 01-.504 2.929 5.405 5.405 0 01-1.354 2.3c-.63.63-1.512.945-2.646.945s-2.016-.315-2.646-.945a5.686 5.686 0 01-1.386-2.3c-.273-.924-.441-1.9-.504-2.929a71.598 71.598 0 01-.063-2.835zm-2.835.031c0 .819.021 1.67.063 2.552.042.882.147 1.743.315 2.583.168.84.409 1.638.724 2.394a6.459 6.459 0 001.292 1.953c.546.567 1.228 1.018 2.047 1.354.84.315 1.838.473 2.993.473 1.176 0 2.173-.158 2.992-.473.819-.336 1.502-.787 2.048-1.354a6.456 6.456 0 001.291-1.953c.315-.756.557-1.554.725-2.394.168-.84.273-1.701.315-2.583.042-.882.063-1.733.063-2.552s-.021-1.669-.063-2.551a17.364 17.364 0 00-.315-2.583c-.168-.84-.41-1.638-.725-2.394a6.354 6.354 0 00-1.291-1.985c-.546-.567-1.239-1.018-2.079-1.354-.819-.336-1.806-.504-2.961-.504-1.155 0-2.153.168-2.993.504-.819.336-1.501.787-2.047 1.354a6.357 6.357 0 00-1.292 1.985 12.665 12.665 0 00-.724 2.394c-.168.84-.273 1.701-.315 2.583a53.672 53.672 0 00-.063 2.551zm231.073-66.684v-2.362h-11.02l-2.08 11.592 2.3.126a6.379 6.379 0 011.79-1.512c.69-.399 1.48-.599 2.36-.599.76 0 1.44.126 2.05.378.63.252 1.17.609 1.61 1.071.44.441.77.977 1.01 1.607.25.609.37 1.281.37 2.016 0 .882-.12 1.659-.37 2.331-.26.651-.6 1.197-1.04 1.638-.42.441-.93.777-1.52 1.008a5.07 5.07 0 01-1.79.315c-.67 0-1.29-.095-1.86-.284a4.925 4.925 0 01-1.45-.85c-.4-.378-.72-.809-.98-1.292a4.612 4.612 0 01-.4-1.606h-2.68c.02 1.008.22 1.911.6 2.709.37.798.89 1.47 1.54 2.016.65.525 1.4.934 2.24 1.228.86.273 1.77.41 2.74.41 1.3 0 2.43-.2 3.4-.599.99-.42 1.8-.976 2.46-1.669a6.64 6.64 0 001.44-2.363c.34-.903.51-1.827.51-2.772 0-1.281-.19-2.394-.57-3.339-.38-.966-.89-1.764-1.54-2.394a6.13 6.13 0 00-2.3-1.449 8.273 8.273 0 00-2.8-.472c-.76 0-1.53.136-2.3.409-.76.252-1.38.651-1.86 1.197l-.07-.063 1.2-6.426h9.01zm-17.24 78.155h-7.5l7.43-10.931h.07v10.931zm2.52 0v-14.742h-2.15l-10.17 14.521v2.583h9.8v5.229h2.52v-5.229h3.02v-2.362h-3.02zm6.9 4.095v3.496h3.49v-3.496h-3.49zm20.94-16.097v-2.362h-11.03l-2.08 11.592 2.3.126a6.56 6.56 0 011.8-1.512c.69-.399 1.48-.599 2.36-.599.76 0 1.44.126 2.05.378a4.59 4.59 0 011.61 1.071c.44.441.77.977 1 1.607.26.609.38 1.281.38 2.016 0 .882-.12 1.659-.38 2.331-.25.651-.6 1.197-1.04 1.638-.42.441-.92.777-1.51 1.008a5.11 5.11 0 01-1.79.315c-.68 0-1.3-.095-1.86-.284a4.925 4.925 0 01-1.45-.85c-.4-.378-.73-.809-.98-1.292a4.624 4.624 0 01-.41-1.606h-2.67c.02 1.008.22 1.911.59 2.709.38.798.9 1.47 1.55 2.016.65.525 1.39.934 2.23 1.228.86.273 1.78.41 2.74.41 1.31 0 2.44-.2 3.41-.599.98-.42 1.8-.976 2.45-1.669a6.665 6.665 0 001.45-2.363c.34-.903.51-1.827.51-2.772 0-1.281-.19-2.394-.57-3.339-.38-.966-.89-1.764-1.54-2.394a6.21 6.21 0 00-2.3-1.449 8.33 8.33 0 00-2.81-.472c-.75 0-1.52.136-2.3.409-.75.252-1.37.651-1.86 1.197l-.06-.063 1.2-6.426h9.01z" fill="#0078C8"/>
    <path d="M1113.62 821.303l3.81-10.489h.06l3.75 10.489h-7.62zm2.24-13.198l-8.76 22.491h3.05l2.52-6.773h9.52l2.45 6.773h3.31l-8.79-22.491h-3.3zm13.85 6.205v16.286h2.68v-10.143c0-.315.07-.704.22-1.166.17-.483.42-.945.76-1.386.35-.441.8-.819 1.35-1.134.57-.315 1.24-.472 2.02-.472.6 0 1.1.094 1.48.283.4.168.71.42.94.756.23.315.39.693.47 1.134.11.441.16.924.16 1.449v10.679h2.68v-10.143c0-1.26.38-2.268 1.13-3.024.76-.756 1.8-1.134 3.12-1.134.65 0 1.18.094 1.58.283.42.189.74.452.97.788.23.315.39.693.48 1.134.08.441.12.913.12 1.417v10.679h2.68v-11.939c0-.84-.14-1.554-.41-2.142a3.575 3.575 0 00-1.1-1.48c-.47-.378-1.03-.651-1.7-.819-.66-.189-1.39-.284-2.21-.284a6.17 6.17 0 00-2.96.725 5.684 5.684 0 00-2.14 2.047c-.34-1.008-.92-1.722-1.73-2.142-.82-.42-1.74-.63-2.75-.63-2.28 0-4.04.924-5.26 2.772h-.06v-2.394h-2.52zm28.79 8.159c0-.987.13-1.859.38-2.615.27-.777.64-1.428 1.1-1.953.46-.525 1-.924 1.61-1.197a4.928 4.928 0 011.98-.409c.7 0 1.35.136 1.96.409.63.273 1.17.672 1.63 1.197.47.525.82 1.176 1.08 1.953.27.756.4 1.628.4 2.615 0 .987-.13 1.869-.4 2.646-.26.756-.61 1.396-1.08 1.921-.46.504-1 .893-1.63 1.166-.61.273-1.26.409-1.96.409-.69 0-1.35-.136-1.98-.409a4.84 4.84 0 01-1.61-1.166c-.46-.525-.83-1.165-1.1-1.921-.25-.777-.38-1.659-.38-2.646zm-2.83 0c0 1.197.16 2.31.5 3.339a7.878 7.878 0 001.51 2.709c.67.756 1.5 1.354 2.49 1.795.99.42 2.12.63 3.4.63 1.31 0 2.44-.21 3.41-.63.98-.441 1.81-1.039 2.48-1.795.68-.777 1.18-1.68 1.52-2.709.33-1.029.5-2.142.5-3.339s-.17-2.31-.5-3.339c-.34-1.05-.84-1.953-1.52-2.709a7.045 7.045 0 00-2.48-1.827c-.97-.441-2.1-.662-3.41-.662-1.28 0-2.41.221-3.4.662a6.993 6.993 0 00-2.49 1.827c-.67.756-1.17 1.659-1.51 2.709-.34 1.029-.5 2.142-.5 3.339zm32.43 8.127V814.31h-2.68v9.198c0 .735-.1 1.418-.31 2.048a4.434 4.434 0 01-.88 1.606c-.4.462-.91.819-1.52 1.071-.58.252-1.29.378-2.11.378-1.02 0-1.83-.294-2.42-.882-.59-.588-.88-1.386-.88-2.394V814.31h-2.68v10.71c0 .882.08 1.691.25 2.426.19.714.51 1.333.95 1.858.44.525 1.01.935 1.73 1.229.71.273 1.61.409 2.68.409 1.19 0 2.23-.231 3.11-.693.89-.483 1.61-1.228 2.18-2.236h.06v2.583h2.52zm4.01-16.286v16.286h2.67v-9.198c0-.735.1-1.407.29-2.016.21-.63.51-1.176.91-1.638.4-.462.89-.819 1.48-1.071.61-.252 1.32-.378 2.14-.378 1.03 0 1.84.294 2.43.882.59.588.88 1.386.88 2.394v11.025h2.68v-10.71c0-.882-.1-1.68-.29-2.394a4.333 4.333 0 00-.91-1.89c-.44-.525-1.02-.935-1.73-1.229-.72-.294-1.61-.441-2.68-.441-2.41 0-4.18.987-5.29 2.961h-.06v-2.583h-2.52zm21.2 0v-4.882h-2.68v4.882h-2.77v2.363h2.77v10.363c0 .756.07 1.365.22 1.827.15.462.37.819.66 1.071.32.252.72.431 1.2.536.5.084 1.1.126 1.8.126h2.04v-2.363h-1.23c-.42 0-.76-.01-1.04-.031-.25-.042-.45-.116-.59-.221a.833.833 0 01-.32-.441 3.8 3.8 0 01-.06-.756v-10.111h3.24v-2.363h-3.24z" fill="#9FACBA"/>
    <path d="M1185.14 479.625v-54.176l-54.18 54.176 54.18 54.177v-54.177z" fill="#FBB200"/>
    <path d="M1185.14 479.617v54.177l54.17-54.177-54.17-54.176v54.176z" fill="#E7690D"/>
    <path d="M1194.44 524.475l-9.32-9.328-9.33 9.328 9.33 9.327 9.32-9.327z" fill="#A3684D"/>
    <path d="M1185.17 425.486l-54.21 54.131v-96.264c0-4.454 5.39-6.685 8.54-3.535l45.67 45.668z" fill="#FECD08"/>
    <path d="M1185.14 425.486l45.59-45.654c3.15-3.153 8.54-.923 8.54 3.533v96.252l-54.13-54.131z" fill="#FBB200"/>
  </g>
  <g filter="url(#filter2_d)">
    <path d="M253.5 657.451c0-5.523 4.477-10 10-10h475c5.523 0 10 4.477 10 10v343.989h-495V657.451z" fill="#fff"/>
    <path d="M289.941 895.145v19.971h2.992v-19.971h7.497v-2.52h-17.986v2.52h7.497zm10.972 11.844c0-.987.126-1.859.378-2.615.273-.777.641-1.428 1.103-1.953a4.667 4.667 0 011.606-1.197 4.94 4.94 0 011.985-.409 4.72 4.72 0 011.953.409 4.59 4.59 0 011.638 1.197c.462.525.819 1.176 1.071 1.953.273.756.409 1.628.409 2.615 0 .987-.136 1.869-.409 2.646-.252.756-.609 1.396-1.071 1.921a4.772 4.772 0 01-1.638 1.166 4.72 4.72 0 01-1.953.409 4.94 4.94 0 01-1.985-.409 4.855 4.855 0 01-1.606-1.166c-.462-.525-.83-1.165-1.103-1.921-.252-.777-.378-1.659-.378-2.646zm-2.835 0c0 1.197.168 2.31.504 3.339a7.785 7.785 0 001.512 2.709c.672.756 1.502 1.354 2.489 1.795.987.42 2.121.63 3.402.63 1.302 0 2.436-.21 3.402-.63.987-.441 1.816-1.039 2.488-1.795a7.785 7.785 0 001.512-2.709c.336-1.029.504-2.142.504-3.339s-.168-2.31-.504-3.339c-.336-1.05-.84-1.953-1.512-2.709a7.03 7.03 0 00-2.488-1.827c-.966-.441-2.1-.662-3.402-.662-1.281 0-2.415.221-3.402.662a7.034 7.034 0 00-2.489 1.827c-.672.756-1.176 1.659-1.512 2.709-.336 1.029-.504 2.142-.504 3.339zm28.143-14.364v22.491h2.993v-9.608h7.308c.735 0 1.323.116 1.764.347.441.21.798.504 1.071.882.273.357.472.787.598 1.291.126.483.231.998.315 1.544.105.546.168 1.102.189 1.669.021.567.042 1.103.063 1.607.021.483.063.924.126 1.323.084.399.231.714.441.945h3.339a4.105 4.105 0 01-.724-1.292 12.299 12.299 0 01-.347-1.575 14.492 14.492 0 01-.157-1.669 42.09 42.09 0 00-.095-1.67 12.304 12.304 0 00-.283-1.575 4.063 4.063 0 00-.536-1.354 3.158 3.158 0 00-.976-1.071c-.399-.294-.924-.504-1.575-.63v-.063c1.365-.378 2.352-1.082 2.961-2.111.63-1.029.945-2.226.945-3.591 0-1.827-.609-3.265-1.827-4.315-1.197-1.05-2.867-1.575-5.009-1.575h-10.584zm9.23 10.363h-6.237v-7.843h7.434c1.407 0 2.425.357 3.055 1.071.63.714.945 1.638.945 2.772 0 .819-.147 1.491-.441 2.016a3.35 3.35 0 01-1.134 1.228c-.462.294-1.008.494-1.638.599-.63.105-1.291.157-1.984.157zm14.711-7.087v-3.276h-2.678v3.276h2.678zm-2.678 2.929v16.286h2.678V898.83h-2.678zm8.761 8.285c0-.798.084-1.575.252-2.331a6.167 6.167 0 01.819-2.016 4.265 4.265 0 011.512-1.418c.63-.357 1.397-.535 2.3-.535.924 0 1.711.178 2.362.535a4.301 4.301 0 011.575 1.355c.42.567.725 1.228.914 1.984.189.735.283 1.502.283 2.3a8.94 8.94 0 01-.283 2.236 5.803 5.803 0 01-.851 1.985 4.674 4.674 0 01-1.543 1.386c-.63.357-1.397.535-2.3.535-.861 0-1.617-.168-2.268-.504a4.666 4.666 0 01-1.575-1.354 6.497 6.497 0 01-.913-1.922 8.942 8.942 0 01-.284-2.236zm12.6 8.001v-22.491h-2.677v8.379h-.063a4.02 4.02 0 00-1.103-1.197 5.183 5.183 0 00-1.354-.788 6.364 6.364 0 00-1.449-.441 7.936 7.936 0 00-1.355-.126c-1.239 0-2.331.231-3.276.693a6.642 6.642 0 00-2.331 1.827c-.609.756-1.071 1.649-1.386 2.678a11.872 11.872 0 00-.441 3.276c0 1.155.158 2.247.473 3.276.315 1.029.777 1.932 1.386 2.709a6.975 6.975 0 002.331 1.858c.945.462 2.047.693 3.307.693 1.134 0 2.174-.199 3.119-.598.945-.399 1.638-1.05 2.079-1.953h.063v2.205h2.677zm18.151-1.386v-14.9h-2.52v2.331h-.031c-.483-.903-1.155-1.575-2.016-2.016a5.9 5.9 0 00-2.835-.693c-1.407 0-2.594.273-3.56.819-.966.525-1.743 1.208-2.331 2.048a7.94 7.94 0 00-1.26 2.772 12.182 12.182 0 00-.378 2.961c0 1.113.147 2.173.441 3.181a8.002 8.002 0 001.386 2.615 6.746 6.746 0 002.268 1.764c.903.441 1.964.661 3.182.661 1.05 0 2.037-.231 2.961-.693.945-.483 1.648-1.228 2.11-2.236h.063v1.071c0 .903-.094 1.732-.283 2.488-.168.756-.452 1.397-.851 1.922a3.998 3.998 0 01-1.512 1.26c-.609.315-1.354.472-2.236.472-.441 0-.903-.052-1.386-.157a4.884 4.884 0 01-1.355-.441 3.59 3.59 0 01-1.039-.819c-.273-.336-.42-.746-.441-1.229h-2.678c.042.882.273 1.628.693 2.237.42.609.945 1.102 1.575 1.48a7.313 7.313 0 002.142.819c.798.168 1.575.252 2.331.252 2.604 0 4.515-.661 5.733-1.984s1.827-3.318 1.827-5.985zm-7.497-.788c-.882 0-1.617-.178-2.205-.535a4.447 4.447 0 01-1.417-1.449 6.459 6.459 0 01-.756-2.016 11.219 11.219 0 01-.221-2.205c0-.777.084-1.523.252-2.237a5.976 5.976 0 01.851-1.89 4.281 4.281 0 011.512-1.291c.609-.336 1.344-.504 2.205-.504.84 0 1.554.168 2.142.504.588.336 1.06.787 1.417 1.354.378.546.651 1.166.819 1.859.168.693.252 1.396.252 2.11a9.32 9.32 0 01-.283 2.268 6.542 6.542 0 01-.819 2.048 4.545 4.545 0 01-1.512 1.449c-.609.357-1.355.535-2.237.535zm22.827-7.528h-9.355c.042-.63.178-1.218.409-1.764a4.702 4.702 0 01.945-1.481c.399-.42.872-.745 1.418-.976a4.603 4.603 0 011.89-.378c.672 0 1.281.126 1.827.378.567.231 1.05.556 1.449.976.42.399.745.882.976 1.449.252.567.399 1.166.441 1.796zm2.583 4.536h-2.646c-.231 1.071-.714 1.869-1.449 2.394-.714.525-1.638.787-2.772.787-.882 0-1.648-.147-2.299-.441-.651-.294-1.187-.682-1.607-1.165a4.77 4.77 0 01-.913-1.701 6.606 6.606 0 01-.252-2.048h12.19a12.49 12.49 0 00-.283-3.118 8.608 8.608 0 00-1.197-3.024 6.793 6.793 0 00-2.3-2.268c-.945-.609-2.142-.914-3.591-.914-1.113 0-2.142.21-3.087.63a7.43 7.43 0 00-2.425 1.764c-.672.756-1.197 1.649-1.575 2.678-.378 1.029-.567 2.163-.567 3.402.042 1.239.22 2.383.535 3.433.336 1.05.83 1.953 1.481 2.709a6.708 6.708 0 002.394 1.764c.966.42 2.1.63 3.402.63 1.848 0 3.381-.462 4.599-1.386 1.218-.924 2.005-2.299 2.362-4.126zm19.138 5.166l5.197-16.286h-2.772l-3.654 13.325h-.063l-3.402-13.325h-2.929l-3.276 13.325h-.063l-3.686-13.325h-2.961l5.229 16.286h2.898l3.276-12.947h.063l3.308 12.947h2.835zm22.153-.063c-.462.273-1.103.409-1.922.409-.693 0-1.249-.189-1.669-.567-.399-.399-.599-1.039-.599-1.921-.735.882-1.596 1.522-2.583 1.921-.966.378-2.016.567-3.15.567a8.667 8.667 0 01-2.11-.252 4.878 4.878 0 01-1.701-.787 3.96 3.96 0 01-1.166-1.386c-.273-.588-.409-1.292-.409-2.111 0-.924.157-1.68.472-2.268a4.04 4.04 0 011.229-1.417 5.725 5.725 0 011.764-.851 22.264 22.264 0 012.047-.472 20.904 20.904 0 012.079-.315c.672-.084 1.26-.189 1.764-.315.504-.147.903-.347 1.197-.599.294-.273.441-.661.441-1.165 0-.588-.115-1.061-.346-1.418a2.127 2.127 0 00-.851-.819 3.308 3.308 0 00-1.165-.378 8.482 8.482 0 00-1.26-.094c-1.134 0-2.079.22-2.835.661-.756.42-1.166 1.229-1.229 2.426h-2.677c.042-1.008.252-1.859.63-2.552a4.637 4.637 0 011.512-1.669 6.178 6.178 0 012.142-.945c.819-.189 1.69-.284 2.614-.284.735 0 1.46.053 2.174.158a5.535 5.535 0 011.984.661 3.659 3.659 0 011.418 1.355c.357.588.535 1.354.535 2.299v8.379c0 .63.032 1.092.095 1.386.084.294.336.441.756.441.231 0 .504-.052.819-.157v2.079zm-4.347-8.348c-.336.252-.777.441-1.323.567-.546.105-1.124.2-1.733.284-.588.063-1.186.147-1.795.252a6.23 6.23 0 00-1.638.441c-.483.21-.882.514-1.197.913-.294.378-.441.903-.441 1.575 0 .441.084.819.252 1.134.189.294.42.536.693.725.294.189.63.325 1.008.409.378.084.777.126 1.197.126.882 0 1.638-.115 2.268-.346.63-.252 1.144-.557 1.543-.914.399-.378.693-.777.882-1.197.189-.441.284-.85.284-1.228v-2.741zm13.216 10.584c-.315.798-.63 1.47-.945 2.016-.294.546-.63.987-1.008 1.323a3.01 3.01 0 01-1.229.756c-.441.168-.955.252-1.543.252-.315 0-.63-.021-.945-.063a4.465 4.465 0 01-.914-.22v-2.457c.231.105.494.189.788.252.315.084.577.126.787.126.546 0 .998-.137 1.355-.41.378-.252.661-.619.85-1.102l1.103-2.741-6.458-16.191h3.024l4.757 13.325h.063l4.567-13.325h2.835l-7.087 18.459zm31.538-18.081h2.835c-.042-1.239-.284-2.299-.725-3.181a5.98 5.98 0 00-1.764-2.237c-.735-.588-1.596-1.018-2.583-1.291-.987-.273-2.058-.41-3.213-.41-1.029 0-2.037.137-3.024.41a8.027 8.027 0 00-2.614 1.197 5.928 5.928 0 00-1.827 2.047c-.462.819-.693 1.796-.693 2.93 0 1.029.199 1.89.598 2.583a5.4 5.4 0 001.638 1.669c.693.42 1.47.767 2.331 1.04.861.252 1.733.483 2.615.693.903.189 1.785.378 2.646.567.861.189 1.627.441 2.299.756.693.294 1.239.682 1.638 1.165.42.483.63 1.113.63 1.89 0 .819-.168 1.491-.504 2.016a3.803 3.803 0 01-1.323 1.26 6.251 6.251 0 01-1.858.63c-.672.126-1.344.189-2.016.189-.84 0-1.659-.105-2.457-.315a6.29 6.29 0 01-2.111-.976 5.314 5.314 0 01-1.449-1.67c-.357-.693-.535-1.512-.535-2.457h-2.835c0 1.365.241 2.552.724 3.56a7.208 7.208 0 002.016 2.457c.861.63 1.848 1.102 2.961 1.417a13.36 13.36 0 003.591.473c1.029 0 2.058-.126 3.087-.378a8.917 8.917 0 002.835-1.134 6.672 6.672 0 002.048-2.079c.546-.861.819-1.89.819-3.087 0-1.113-.21-2.037-.63-2.772a5.257 5.257 0 00-1.638-1.827 8.108 8.108 0 00-2.3-1.134 27.364 27.364 0 00-2.646-.756 65.172 65.172 0 00-2.614-.567 15.35 15.35 0 01-2.331-.693c-.672-.273-1.218-.62-1.638-1.04-.399-.441-.599-1.008-.599-1.701 0-.735.137-1.344.41-1.827a3.451 3.451 0 011.134-1.197 5.116 5.116 0 011.638-.63 9.144 9.144 0 011.858-.189c1.554 0 2.825.368 3.812 1.103 1.008.714 1.596 1.879 1.764 3.496zm18.014 4.851h2.772c-.105-.966-.357-1.795-.756-2.488a5.454 5.454 0 00-1.544-1.764c-.609-.462-1.323-.798-2.142-1.008a9.254 9.254 0 00-2.583-.347c-1.281 0-2.404.231-3.37.693a6.644 6.644 0 00-2.426 1.859c-.63.777-1.102 1.701-1.417 2.772-.315 1.05-.473 2.184-.473 3.402s.158 2.341.473 3.37c.336 1.008.819 1.88 1.449 2.615a6.555 6.555 0 002.394 1.701c.966.399 2.068.598 3.307.598 2.079 0 3.717-.546 4.914-1.638 1.218-1.092 1.974-2.646 2.268-4.662h-2.74c-.168 1.26-.63 2.237-1.386 2.93-.735.693-1.764 1.039-3.087 1.039-.84 0-1.565-.168-2.174-.504a4.288 4.288 0 01-1.48-1.323 6.374 6.374 0 01-.851-1.921 9.595 9.595 0 01-.252-2.205c0-.819.084-1.607.252-2.363.168-.777.441-1.459.819-2.047a4.463 4.463 0 011.575-1.418c.651-.357 1.46-.535 2.426-.535 1.134 0 2.037.283 2.709.85.672.567 1.113 1.365 1.323 2.394zm5.845-11.434v22.491h2.677v-9.198c0-.735.095-1.407.284-2.016.21-.63.514-1.176.913-1.638a4.016 4.016 0 011.481-1.071c.609-.252 1.323-.378 2.142-.378 1.029 0 1.837.294 2.425.882.588.588.882 1.386.882 2.394v11.025h2.678v-10.71c0-.882-.095-1.68-.284-2.394-.168-.735-.472-1.365-.913-1.89-.441-.525-1.019-.935-1.733-1.229-.714-.294-1.606-.441-2.677-.441-.483 0-.987.053-1.512.158a6.495 6.495 0 00-1.481.504c-.462.21-.882.493-1.26.85a3.413 3.413 0 00-.882 1.26h-.063v-8.599h-2.677zm19.439 14.364c0-.987.126-1.859.378-2.615.273-.777.64-1.428 1.102-1.953a4.67 4.67 0 011.607-1.197 4.936 4.936 0 011.984-.409 4.72 4.72 0 011.953.409 4.59 4.59 0 011.638 1.197c.462.525.819 1.176 1.071 1.953.273.756.41 1.628.41 2.615 0 .987-.137 1.869-.41 2.646-.252.756-.609 1.396-1.071 1.921a4.772 4.772 0 01-1.638 1.166 4.72 4.72 0 01-1.953.409 4.936 4.936 0 01-1.984-.409 4.859 4.859 0 01-1.607-1.166c-.462-.525-.829-1.165-1.102-1.921-.252-.777-.378-1.659-.378-2.646zm-2.835 0c0 1.197.168 2.31.504 3.339a7.785 7.785 0 001.512 2.709c.672.756 1.501 1.354 2.488 1.795.987.42 2.121.63 3.402.63 1.302 0 2.436-.21 3.402-.63.987-.441 1.817-1.039 2.489-1.795a7.785 7.785 0 001.512-2.709c.336-1.029.504-2.142.504-3.339s-.168-2.31-.504-3.339c-.336-1.05-.84-1.953-1.512-2.709a7.034 7.034 0 00-2.489-1.827c-.966-.441-2.1-.662-3.402-.662-1.281 0-2.415.221-3.402.662a7.03 7.03 0 00-2.488 1.827c-.672.756-1.176 1.659-1.512 2.709-.336 1.029-.504 2.142-.504 3.339zm20.905 0c0-.987.126-1.859.378-2.615.273-.777.641-1.428 1.103-1.953a4.667 4.667 0 011.606-1.197 4.94 4.94 0 011.985-.409 4.72 4.72 0 011.953.409 4.59 4.59 0 011.638 1.197c.462.525.819 1.176 1.071 1.953.273.756.409 1.628.409 2.615 0 .987-.136 1.869-.409 2.646-.252.756-.609 1.396-1.071 1.921a4.772 4.772 0 01-1.638 1.166 4.72 4.72 0 01-1.953.409 4.94 4.94 0 01-1.985-.409 4.855 4.855 0 01-1.606-1.166c-.462-.525-.83-1.165-1.103-1.921-.252-.777-.378-1.659-.378-2.646zm-2.835 0c0 1.197.168 2.31.504 3.339a7.785 7.785 0 001.512 2.709c.672.756 1.502 1.354 2.489 1.795.987.42 2.121.63 3.402.63 1.302 0 2.436-.21 3.402-.63.987-.441 1.816-1.039 2.488-1.795a7.785 7.785 0 001.512-2.709c.336-1.029.504-2.142.504-3.339s-.168-2.31-.504-3.339c-.336-1.05-.84-1.953-1.512-2.709a7.03 7.03 0 00-2.488-1.827c-.966-.441-2.1-.662-3.402-.662-1.281 0-2.415.221-3.402.662a7.034 7.034 0 00-2.489 1.827c-.672.756-1.176 1.659-1.512 2.709-.336 1.029-.504 2.142-.504 3.339zm19.11-14.364v22.491h2.678v-22.491h-2.678zm-279.286 38v22.491h2.992v-22.491h-2.992zm7.567 6.205v16.286h2.678v-9.198c0-.735.094-1.407.283-2.016.21-.63.515-1.176.914-1.638a4.012 4.012 0 011.48-1.071c.609-.252 1.323-.378 2.142-.378 1.029 0 1.838.294 2.426.882.588.588.882 1.386.882 2.394v11.025h2.677v-10.71c0-.882-.094-1.68-.283-2.394-.168-.735-.473-1.365-.914-1.89-.441-.525-1.018-.935-1.732-1.229-.714-.294-1.607-.441-2.678-.441-2.415 0-4.179.987-5.292 2.961h-.063v-2.583h-2.52zm24.826 16.286l5.953-16.286h-2.803l-4.442 13.577h-.063l-4.567-13.577h-2.993l6.048 16.286h2.867zm10.346-8.127c0-.987.126-1.859.378-2.615.273-.777.64-1.428 1.102-1.953a4.67 4.67 0 011.607-1.197 4.936 4.936 0 011.984-.409 4.72 4.72 0 011.953.409 4.59 4.59 0 011.638 1.197c.462.525.819 1.176 1.071 1.953.273.756.41 1.628.41 2.615 0 .987-.137 1.869-.41 2.646-.252.756-.609 1.396-1.071 1.921a4.772 4.772 0 01-1.638 1.166 4.72 4.72 0 01-1.953.409 4.936 4.936 0 01-1.984-.409 4.859 4.859 0 01-1.607-1.166c-.462-.525-.829-1.165-1.102-1.921-.252-.777-.378-1.659-.378-2.646zm-2.835 0c0 1.197.168 2.31.504 3.339a7.785 7.785 0 001.512 2.709c.672.756 1.501 1.354 2.488 1.795.987.42 2.121.63 3.402.63 1.302 0 2.436-.21 3.402-.63.987-.441 1.817-1.039 2.489-1.795a7.785 7.785 0 001.512-2.709c.336-1.029.504-2.142.504-3.339s-.168-2.31-.504-3.339c-.336-1.05-.84-1.953-1.512-2.709a7.034 7.034 0 00-2.489-1.827c-.966-.441-2.1-.662-3.402-.662-1.281 0-2.415.221-3.402.662a7.03 7.03 0 00-2.488 1.827c-.672.756-1.176 1.659-1.512 2.709-.336 1.029-.504 2.142-.504 3.339zm21.787-11.088v-3.276h-2.677v3.276h2.677zm-2.677 2.929v16.286h2.677V936.83h-2.677zm17.864 5.229h2.772c-.105-.966-.357-1.795-.756-2.488a5.454 5.454 0 00-1.544-1.764c-.609-.462-1.323-.798-2.142-1.008a9.254 9.254 0 00-2.583-.347c-1.281 0-2.404.231-3.37.693a6.644 6.644 0 00-2.426 1.859c-.63.777-1.102 1.701-1.417 2.772-.315 1.05-.473 2.184-.473 3.402s.158 2.341.473 3.37c.336 1.008.819 1.88 1.449 2.615a6.555 6.555 0 002.394 1.701c.966.399 2.068.598 3.307.598 2.079 0 3.717-.546 4.914-1.638 1.218-1.092 1.974-2.646 2.268-4.662h-2.74c-.168 1.26-.63 2.237-1.386 2.93-.735.693-1.764 1.039-3.087 1.039-.84 0-1.565-.168-2.174-.504a4.288 4.288 0 01-1.48-1.323 6.374 6.374 0 01-.851-1.921 9.595 9.595 0 01-.252-2.205c0-.819.084-1.607.252-2.363.168-.777.441-1.459.819-2.047a4.463 4.463 0 011.575-1.418c.651-.357 1.46-.535 2.426-.535 1.134 0 2.037.283 2.709.85.672.567 1.113 1.365 1.323 2.394zm17.153 1.355h-9.355c.042-.63.178-1.218.409-1.764a4.702 4.702 0 01.945-1.481c.399-.42.872-.745 1.418-.976a4.603 4.603 0 011.89-.378c.672 0 1.281.126 1.827.378.567.231 1.05.556 1.449.976.42.399.745.882.976 1.449.252.567.399 1.166.441 1.796zm2.583 4.536h-2.646c-.231 1.071-.714 1.869-1.449 2.394-.714.525-1.638.787-2.772.787-.882 0-1.648-.147-2.299-.441-.651-.294-1.187-.682-1.607-1.165a4.77 4.77 0 01-.913-1.701 6.606 6.606 0 01-.252-2.048h12.19a12.49 12.49 0 00-.283-3.118 8.608 8.608 0 00-1.197-3.024 6.793 6.793 0 00-2.3-2.268c-.945-.609-2.142-.914-3.591-.914-1.113 0-2.142.21-3.087.63a7.43 7.43 0 00-2.425 1.764c-.672.756-1.197 1.649-1.575 2.678-.378 1.029-.567 2.163-.567 3.402.042 1.239.22 2.383.535 3.433.336 1.05.83 1.953 1.481 2.709a6.708 6.708 0 002.394 1.764c.966.42 2.1.63 3.402.63 1.848 0 3.381-.462 4.599-1.386 1.218-.924 2.005-2.299 2.362-4.126zm25.777-14.49v-2.3h-14.458v2.52h11.718a35.27 35.27 0 00-3.308 4.064 33.116 33.116 0 00-2.677 4.693 32.263 32.263 0 00-1.922 5.166 28.25 28.25 0 00-.913 5.513h2.992c.105-1.743.399-3.539.882-5.387a37.075 37.075 0 011.859-5.386 36.549 36.549 0 012.646-4.914c.987-1.533 2.047-2.856 3.181-3.969zm17.486 0v-2.3h-14.458v2.52h11.718a35.27 35.27 0 00-3.308 4.064 33.116 33.116 0 00-2.677 4.693 32.263 32.263 0 00-1.922 5.166 28.25 28.25 0 00-.913 5.513h2.992c.105-1.743.399-3.539.882-5.387a37.075 37.075 0 011.859-5.386 36.549 36.549 0 012.646-4.914c.987-1.533 2.047-2.856 3.181-3.969zm16.258.063v-2.363h-11.025l-2.079 11.592 2.299.126a6.444 6.444 0 011.796-1.512c.693-.399 1.48-.598 2.362-.598.756 0 1.439.126 2.048.378.63.252 1.165.609 1.606 1.071.441.441.777.976 1.008 1.606.252.609.378 1.281.378 2.016 0 .882-.126 1.659-.378 2.331a4.657 4.657 0 01-1.039 1.638c-.42.441-.924.777-1.512 1.008a5.13 5.13 0 01-1.796.315 5.843 5.843 0 01-1.858-.283 4.974 4.974 0 01-1.449-.851 4.872 4.872 0 01-.977-1.291 4.65 4.65 0 01-.409-1.607h-2.678c.021 1.008.221 1.911.599 2.709s.892 1.47 1.543 2.016a7.453 7.453 0 002.237 1.229 9.011 9.011 0 002.74.409c1.302 0 2.436-.199 3.402-.598.987-.42 1.806-.977 2.457-1.67a6.716 6.716 0 001.449-2.362 7.89 7.89 0 00.504-2.772c0-1.281-.189-2.394-.567-3.339-.378-.966-.892-1.764-1.543-2.394a6.122 6.122 0 00-2.3-1.449 8.27 8.27 0 00-2.803-.473 6.91 6.91 0 00-2.3.41c-.756.252-1.375.651-1.858 1.197l-.063-.063 1.197-6.426h9.009z" fill="#9FACBA"/>
    <path fill="#F2F5FB" d="M250.881 708.478h495v63h-495z"/>
    <path d="M250.881 657.451c0-5.523 4.477-10 10-10h475c5.523 0 10 4.477 10 10v53h-495v-53z" stroke="#BFC8D1" stroke-width="3"/>
    <path d="M707.774 678.93c0-1.894-1.473-3.368-3.367-3.368-1.936 0-3.367 1.474-3.367 3.368 0 1.893 1.431 3.409 3.367 3.409 1.894 0 3.367-1.516 3.367-3.409zm-10.522 0c0-1.894-1.473-3.368-3.367-3.368-1.936 0-3.367 1.474-3.367 3.368 0 1.893 1.431 3.409 3.367 3.409 1.894 0 3.367-1.516 3.367-3.409zm-10.522 0c0-1.894-1.473-3.368-3.367-3.368-1.936 0-3.367 1.474-3.367 3.368 0 1.893 1.431 3.409 3.367 3.409 1.894 0 3.367-1.516 3.367-3.409z" fill="#BFC8D1"/>
    <path d="M296.27 672.007l-13.889 13.888m13.889-.001l-13.889-13.888" stroke="#BFC8D1" stroke-width="6" stroke-miterlimit="10"/>
    <path d="M299.359 838.031c.42-.567.756-1.271 1.008-2.111.252-.84.378-1.858.378-3.055 0-.987-.115-1.943-.346-2.867a7.178 7.178 0 00-1.04-2.457 5.165 5.165 0 00-1.89-1.732c-.777-.441-1.722-.662-2.835-.662s-2.058.221-2.835.662a5.165 5.165 0 00-1.89 1.732 7.658 7.658 0 00-1.071 2.457 12.9 12.9 0 00-.315 2.867c0 .945.105 1.869.315 2.772.231.882.588 1.68 1.071 2.394a5.552 5.552 0 001.89 1.732c.777.42 1.722.63 2.835.63.525 0 .924-.021 1.197-.063.273-.042.536-.126.788-.252l-2.111-1.921 2.3-2.457 2.551 2.331zm.725 5.197c-1.491.861-3.308 1.292-5.45 1.292-1.722 0-3.276-.294-4.662-.882-1.365-.609-2.52-1.439-3.465-2.489-.945-1.05-1.669-2.278-2.173-3.685-.504-1.428-.756-2.961-.756-4.599 0-1.68.252-3.234.756-4.662.504-1.449 1.228-2.709 2.173-3.78.945-1.071 2.1-1.911 3.465-2.52 1.386-.609 2.94-.914 4.662-.914 1.743 0 3.297.305 4.662.914 1.365.609 2.52 1.449 3.465 2.52.945 1.071 1.67 2.331 2.174 3.78.504 1.428.756 2.982.756 4.662 0 1.638-.252 3.16-.756 4.567a11.333 11.333 0 01-2.174 3.717l2.804 2.552-2.3 2.394-3.181-2.867zm23.775.788V827.73h-4.473v8.537c0 1.659-.273 2.856-.819 3.591-.546.714-1.428 1.071-2.646 1.071-1.071 0-1.817-.326-2.237-.977-.42-.672-.63-1.68-.63-3.024v-9.198h-4.473v10.017c0 1.008.084 1.932.252 2.772.189.819.504 1.523.945 2.111.441.567 1.04 1.008 1.796 1.323.777.315 1.764.472 2.961.472.945 0 1.869-.21 2.772-.63.903-.42 1.638-1.102 2.205-2.047h.094v2.268h4.253zm7.346-8.127c0-.651.063-1.292.189-1.922.126-.63.336-1.186.63-1.669a3.63 3.63 0 011.229-1.166c.504-.315 1.134-.472 1.89-.472s1.386.157 1.89.472c.525.294.934.683 1.228 1.166.315.483.536 1.039.662 1.669.126.63.189 1.271.189 1.922s-.063 1.291-.189 1.921a5.057 5.057 0 01-.662 1.67 3.28 3.28 0 01-1.228 1.165c-.504.294-1.134.441-1.89.441s-1.386-.147-1.89-.441a3.628 3.628 0 01-1.229-1.165 5.502 5.502 0 01-.63-1.67 9.769 9.769 0 01-.189-1.921zm-4.473 0c0 1.302.2 2.478.599 3.528a7.816 7.816 0 001.701 2.709 7.55 7.55 0 002.646 1.701c1.029.399 2.184.598 3.465.598 1.281 0 2.436-.199 3.465-.598 1.05-.399 1.942-.966 2.677-1.701a7.816 7.816 0 001.701-2.709c.399-1.05.599-2.226.599-3.528s-.2-2.478-.599-3.528c-.399-1.071-.966-1.974-1.701-2.709-.735-.756-1.627-1.334-2.677-1.733-1.029-.42-2.184-.63-3.465-.63-1.281 0-2.436.21-3.465.63a7.34 7.34 0 00-2.646 1.733c-.735.735-1.302 1.638-1.701 2.709-.399 1.05-.599 2.226-.599 3.528zm25.414-8.159v-4.882h-4.473v4.882h-2.709v2.993h2.709v9.607c0 .819.136 1.481.409 1.985.273.504.641.892 1.103 1.165a4.563 4.563 0 001.638.536c.63.105 1.291.157 1.984.157.441 0 .893-.01 1.355-.031.462-.021.882-.063 1.26-.126v-3.465c-.21.042-.431.073-.662.094a7.992 7.992 0 01-.724.032c-.756 0-1.26-.126-1.512-.378s-.378-.756-.378-1.512v-8.064h3.276v-2.993h-3.276zm16.348 6.395h-7.276c.021-.315.084-.672.189-1.071.126-.399.325-.777.598-1.134a3.43 3.43 0 011.134-.882c.483-.252 1.082-.378 1.796-.378 1.092 0 1.9.294 2.425.882.546.588.924 1.449 1.134 2.583zm-7.276 2.835h11.749a11.5 11.5 0 00-.315-3.623 8.71 8.71 0 00-1.449-3.087 6.942 6.942 0 00-2.52-2.142c-1.029-.546-2.236-.819-3.622-.819-1.239 0-2.373.221-3.402.662a7.936 7.936 0 00-2.615 1.827 7.816 7.816 0 00-1.701 2.709c-.399 1.05-.598 2.184-.598 3.402 0 1.26.189 2.415.567 3.465.399 1.05.955 1.953 1.669 2.709.714.756 1.586 1.344 2.615 1.764 1.029.399 2.184.598 3.465.598 1.848 0 3.423-.42 4.725-1.26 1.302-.84 2.268-2.236 2.898-4.189h-3.938c-.147.504-.546.987-1.197 1.449-.651.441-1.428.661-2.331.661-1.26 0-2.226-.325-2.898-.976-.672-.651-1.039-1.701-1.102-3.15z" fill="#0078C8"/>
    <path d="M250.881 657.764c0-6.628 5.372-12 12-12h471c6.627 0 12 5.372 12 12v343.676h-495V657.764z" stroke="#BFC8D1" stroke-width="6"/>
    <path d="M656.046 857.152v-26.963l-27 26.963 27 26.964v-26.964z" fill="#FBB200"/>
    <path d="M656.046 857.146v26.964l27-26.964-27-26.963v26.963z" fill="#E7690D"/>
    <path d="M660.686 879.472l-4.649-4.642-4.649 4.642 4.649 4.643 4.649-4.643z" fill="#A3684D"/>
    <path d="M656.061 830.206l-27.013 26.941v-47.916c0-2.216 2.679-3.327 4.247-1.761l22.766 22.736z" fill="#FECD08"/>
    <path d="M656.046 830.206l22.729-22.729c1.568-1.568 4.248-.457 4.248 1.76v47.91l-26.977-26.941z" fill="#FBB200"/>
  </g>
  <defs>
    <filter id="filter0_d" x="153" y="45.833" width="1290" height="972.463" filterUnits="userSpaceOnUse" color-interpolation-filters="sRGB">
      <feFlood flood-opacity="0" result="BackgroundImageFix"/>
      <feColorMatrix in="SourceAlpha" values="0 0 0 0 0 0 0 0 0 0 0 0 0 0 0 0 0 0 127 0"/>
      <feOffset/>
      <feGaussianBlur stdDeviation="7.5"/>
      <feColorMatrix values="0 0 0 0 0 0 0 0 0 0 0 0 0 0 0 0 0 0 0.15 0"/>
      <feBlend in2="BackgroundImageFix" result="effect1_dropShadow"/>
      <feBlend in="SourceGraphic" in2="effect1_dropShadow" result="shape"/>
    </filter>
    <filter id="filter1_d" x="427.119" y="263.442" width="936" height="756" filterUnits="userSpaceOnUse" color-interpolation-filters="sRGB">
      <feFlood flood-opacity="0" result="BackgroundImageFix"/>
      <feColorMatrix in="SourceAlpha" values="0 0 0 0 0 0 0 0 0 0 0 0 0 0 0 0 0 0 127 0"/>
      <feOffset/>
      <feGaussianBlur stdDeviation="7.5"/>
      <feColorMatrix values="0 0 0 0 0 0 0 0 0 0 0 0 0 0 0 0 0 0 0.15 0"/>
      <feBlend in2="BackgroundImageFix" result="effect1_dropShadow"/>
      <feBlend in="SourceGraphic" in2="effect1_dropShadow" result="shape"/>
    </filter>
    <filter id="filter2_d" x="232.881" y="627.764" width="531" height="391.679" filterUnits="userSpaceOnUse" color-interpolation-filters="sRGB">
      <feFlood flood-opacity="0" result="BackgroundImageFix"/>
      <feColorMatrix in="SourceAlpha" values="0 0 0 0 0 0 0 0 0 0 0 0 0 0 0 0 0 0 127 0"/>
      <feOffset/>
      <feGaussianBlur stdDeviation="7.5"/>
      <feColorMatrix values="0 0 0 0 0 0 0 0 0 0 0 0 0 0 0 0 0 0 0.15 0"/>
      <feBlend in2="BackgroundImageFix" result="effect1_dropShadow"/>
      <feBlend in="SourceGraphic" in2="effect1_dropShadow" result="shape"/>
    </filter>
  </defs>
</svg>
